<?xml version="1.0" standalone="no"?>
<!DOCTYPE svg PUBLIC "-//W3C//DTD SVG 20010904//EN"
 "http://www.w3.org/TR/2001/REC-SVG-20010904/DTD/svg10.dtd">
<svg version="1.0" xmlns="http://www.w3.org/2000/svg"
 width="3718.000000pt" height="1609.000000pt" viewBox="0 0 3718.000000 1609.000000"
 preserveAspectRatio="xMidYMid meet">

<g transform="translate(0.000000,1609.000000) scale(0.100000,-0.100000)"
fill="#000000" stroke="none">
<path d="M0 14131 c0 -2156 -5 -1960 54 -2171 9 -30 16 -73 16 -96 0 -49 12
-89 51 -169 43 -89 59 -158 59 -268 l0 -98 48 -52 c54 -58 78 -109 88 -189 3
-29 15 -87 26 -128 11 -41 22 -84 25 -95 3 -11 7 -27 10 -35 3 -8 7 -22 9 -32
2 -9 18 -67 35 -130 17 -62 37 -142 45 -178 18 -82 46 -179 73 -249 11 -30 25
-80 31 -110 5 -30 23 -90 40 -132 16 -43 36 -120 44 -172 23 -154 79 -332 162
-512 64 -141 179 -426 188 -465 17 -82 40 -173 56 -225 39 -122 64 -197 81
-240 13 -33 57 -186 75 -260 10 -38 20 -72 24 -75 8 -6 28 -77 40 -140 5 -25
13 -63 19 -85 6 -22 13 -52 17 -68 3 -15 10 -30 15 -33 5 -3 9 -14 9 -26 0
-11 6 -32 14 -46 8 -15 26 -72 41 -127 15 -55 30 -109 35 -121 4 -11 18 -61
30 -110 12 -49 25 -97 31 -106 5 -10 9 -26 9 -36 0 -10 4 -22 8 -28 5 -5 19
-43 32 -84 12 -41 33 -106 45 -145 13 -38 28 -90 35 -115 6 -25 17 -58 25 -75
7 -16 34 -113 60 -215 26 -102 52 -198 60 -215 7 -16 23 -70 35 -120 11 -49
34 -128 50 -175 16 -47 31 -96 33 -110 2 -14 9 -38 17 -55 7 -16 16 -39 21
-50 5 -11 13 -51 19 -88 6 -37 17 -85 24 -105 8 -20 19 -57 26 -82 7 -25 16
-54 21 -65 5 -11 16 -45 25 -75 31 -112 38 -137 47 -160 31 -85 89 -292 112
-400 7 -36 18 -83 25 -105 6 -22 12 -44 13 -50 1 -5 5 -15 9 -20 3 -6 13 -45
22 -87 9 -42 20 -87 25 -100 13 -34 38 -115 56 -183 9 -33 20 -69 25 -80 4
-11 18 -63 31 -115 12 -52 27 -111 34 -130 7 -19 18 -55 24 -80 7 -25 17 -58
22 -75 6 -16 17 -59 26 -95 8 -36 19 -73 24 -82 5 -10 9 -27 9 -39 0 -11 9
-34 21 -50 11 -16 17 -34 14 -39 -4 -6 2 -26 13 -44 11 -18 23 -47 27 -64 8
-38 38 -66 65 -59 13 3 25 -2 34 -14 18 -26 72 -31 70 -6 -1 9 1 17 5 18 3 0
18 2 33 4 19 2 28 -1 28 -11 0 -19 9 -18 32 3 18 16 19 16 25 -5 6 -23 23 -31
23 -10 0 6 7 5 18 -5 17 -16 20 -15 41 5 23 21 23 21 17 0 -8 -23 12 -41 24
-22 6 9 9 9 12 -1 4 -12 7 -12 21 0 11 9 17 10 17 2 0 -6 9 -11 20 -11 11 0
20 -5 20 -10 0 -7 6 -7 19 0 26 13 31 13 31 -5 0 -8 7 -15 15 -15 9 0 12 6 9
15 -5 11 -2 13 10 9 10 -4 15 -13 12 -20 -7 -19 14 -18 42 2 13 9 22 11 22 4
0 -6 11 -15 25 -20 14 -5 25 -14 25 -20 0 -21 20 -9 21 13 1 14 3 16 6 6 2 -9
15 -22 29 -29 21 -12 26 -11 37 3 8 11 29 18 62 20 28 2 56 6 62 10 6 4 15 3
18 -3 5 -8 11 -8 20 0 9 8 14 8 17 0 2 -6 23 -11 48 -12 25 -1 51 -6 59 -12
10 -8 18 -5 30 11 16 19 18 19 29 4 10 -15 12 -15 25 1 11 14 16 15 26 5 9 -9
14 -9 20 2 6 10 10 10 16 2 5 -9 10 -9 20 -1 13 11 45 4 45 -11 0 -5 43 -7 95
-6 56 2 96 -1 98 -7 2 -6 11 -6 23 -1 10 4 27 9 36 10 10 1 21 4 24 8 3 3 17
2 30 -3 15 -6 24 -6 24 0 0 6 7 10 15 10 8 0 15 -7 15 -16 0 -11 5 -14 18 -9
9 4 23 8 31 8 8 0 16 9 19 19 4 18 5 18 18 1 10 -14 15 -15 25 -6 6 6 18 9 25
6 10 -4 12 0 7 13 -6 16 -4 17 8 7 12 -10 18 -10 28 0 11 9 14 9 18 0 8 -21
22 -15 16 7 -4 16 0 20 17 20 13 0 24 8 27 20 7 25 17 25 42 -1 15 -17 23 -19
39 -10 15 8 22 8 26 -2 3 -9 8 -8 18 4 11 14 15 14 26 3 16 -17 32 -18 32 -1
0 8 3 7 10 -3 7 -12 12 -12 22 -2 17 17 31 15 24 -3 -7 -20 18 -20 34 0 11 13
15 13 33 0 27 -19 37 -19 37 0 0 20 10 19 26 -2 13 -17 15 -17 28 0 18 23 33
22 41 -4 5 -16 9 -18 15 -9 4 7 15 10 24 7 9 -4 16 -1 16 6 0 8 3 8 9 -2 6
-10 10 -10 16 -1 5 8 12 7 25 -5 19 -17 37 -5 24 16 -9 15 38 0 49 -15 5 -8 9
-8 15 1 4 6 26 10 50 9 30 -2 46 2 52 13 5 9 11 15 14 13 3 -1 24 1 45 4 31 5
42 12 51 35 7 15 9 32 6 38 -4 5 -2 12 4 16 5 3 7 17 4 30 -3 12 -1 26 5 29 6
4 11 23 11 42 0 19 5 34 11 34 6 0 9 6 6 14 -6 16 43 42 52 28 9 -13 50 -21
57 -11 3 5 17 -4 31 -21 13 -16 31 -30 39 -30 8 0 19 -11 24 -24 5 -13 23 -40
40 -60 20 -23 34 -51 37 -76 3 -22 10 -40 14 -40 5 0 9 -8 9 -18 0 -20 86 -82
113 -82 8 0 17 -7 21 -15 4 -12 17 -14 66 -8 55 5 60 4 54 -12 -6 -14 -3 -16
14 -11 12 4 39 2 62 -5 29 -9 44 -9 51 -2 8 8 17 5 31 -9 12 -12 23 -16 27
-11 3 6 26 9 51 9 37 -1 45 2 44 16 -2 25 5 22 16 -7 9 -25 22 -29 69 -25 18
1 22 -2 18 -15 -4 -9 -3 -14 1 -13 4 2 20 10 36 18 23 12 30 12 33 3 5 -15 53
-18 53 -3 0 18 20 11 20 -7 1 -17 32 -63 43 -63 3 0 7 10 10 21 4 16 11 20 26
16 12 -3 23 -2 26 3 6 10 73 1 99 -12 15 -8 18 -7 13 6 -9 24 8 28 28 6 14
-15 21 -17 32 -9 9 9 17 8 27 0 10 -8 16 -9 21 -1 8 13 52 13 60 0 3 -6 17 -7
31 -4 18 5 24 2 24 -10 0 -11 9 -16 31 -16 18 0 28 4 24 10 -4 6 -16 8 -28 5
-19 -5 -20 -5 -4 5 9 6 26 8 37 5 14 -4 22 -1 27 11 6 15 7 15 14 -4 10 -25
30 -21 44 10 6 12 20 25 33 29 19 7 22 5 22 -16 0 -15 6 -25 14 -25 7 0 19 -6
25 -14 6 -7 22 -11 36 -8 14 2 33 -2 42 -9 15 -13 16 -11 9 16 -3 17 -3 25 1
19 4 -6 18 -14 31 -18 16 -6 22 -3 22 8 0 9 5 16 10 16 6 0 10 -4 10 -9 0 -5
9 -11 20 -14 11 -3 18 -1 14 4 -9 15 18 10 37 -7 10 -9 36 -17 56 -18 21 0 43
-7 49 -15 9 -12 13 -12 21 4 10 17 11 17 24 -1 19 -26 43 -30 35 -7 -5 16 -5
16 9 -1 8 -10 12 -23 8 -29 -3 -6 -1 -7 6 -3 6 4 23 1 36 -8 13 -9 33 -16 43
-16 10 0 22 -4 28 -9 19 -19 85 -51 104 -51 11 0 20 -6 20 -13 0 -14 56 -60
76 -63 7 -1 22 -12 34 -24 13 -13 29 -20 42 -17 11 3 21 0 24 -8 7 -16 44 -27
44 -13 0 6 6 5 15 -2 8 -7 13 -16 10 -20 -3 -5 4 -6 15 -3 11 3 17 9 14 14 -3
5 4 9 14 9 11 0 22 -7 26 -15 3 -8 1 -15 -4 -15 -6 0 -10 5 -10 12 0 9 -3 9
-12 0 -17 -17 8 -33 38 -26 12 3 26 -1 34 -11 13 -15 15 -15 31 6 16 22 19 22
44 9 15 -8 39 -14 54 -12 l26 3 -25 -20 c-14 -11 -28 -21 -32 -21 -5 0 -7 -10
-7 -22 1 -17 2 -19 6 -5 3 12 11 15 29 11 14 -4 24 -2 24 5 0 6 5 11 12 11 6
0 20 7 30 17 11 9 18 11 18 5 0 -7 -4 -12 -10 -12 -5 0 -10 -4 -10 -10 0 -5
11 -10 25 -10 16 0 25 -6 25 -15 0 -8 5 -15 10 -15 6 0 10 3 10 8 0 4 11 8 25
8 17 1 25 -3 25 -15 0 -36 15 -45 49 -28 29 15 31 14 31 -4 0 -17 11 -24 34
-20 4 1 18 -5 31 -13 12 -8 32 -12 44 -9 15 4 21 1 21 -11 0 -14 4 -15 21 -6
16 9 18 14 8 26 -9 11 -7 14 14 12 14 -1 24 -5 22 -8 -2 -3 1 -12 6 -20 8 -13
10 -13 18 -1 17 27 49 20 68 -16 17 -32 38 -47 27 -19 -3 8 -1 17 5 21 6 3 15
-4 20 -17 9 -21 10 -21 10 9 l1 32 26 -24 c14 -13 23 -29 19 -34 -3 -6 -1 -11
5 -11 6 0 13 7 16 15 4 10 13 13 25 10 11 -4 19 -2 19 3 0 5 14 12 30 14 17 3
30 1 30 -4 0 -4 -7 -8 -15 -8 -20 0 -19 -26 1 -34 22 -9 22 -8 26 17 3 25 42
35 68 17 13 -9 13 -11 0 -21 -13 -9 -12 -10 3 -5 10 3 31 6 45 7 24 0 25 1 7
9 -22 10 -20 11 13 15 17 2 22 -3 22 -20 0 -32 10 -37 37 -20 21 14 23 14 23
0 0 -9 5 -13 11 -10 6 4 21 -3 33 -14 l23 -22 16 25 c16 24 18 24 47 10 33
-17 38 -29 14 -38 -8 -3 -12 -10 -9 -16 9 -15 25 -12 25 4 0 18 29 28 79 28
20 0 42 5 50 11 12 10 13 6 7 -25 l-7 -36 41 19 c22 11 40 24 40 29 0 21 20 9
21 -12 0 -13 3 -17 6 -10 2 6 11 12 18 12 8 0 11 7 8 19 -3 12 4 29 17 43 l21
23 18 -24 c11 -14 21 -20 25 -13 3 6 0 12 -6 15 -7 2 -9 8 -5 13 5 5 19 -4 33
-21 24 -29 25 -29 39 -11 11 15 18 17 26 9 6 -6 18 -9 25 -6 8 3 14 -1 14 -11
0 -9 -4 -16 -10 -16 -5 0 -10 -7 -10 -15 0 -25 19 -17 26 12 7 26 7 26 15 5
10 -27 29 -28 36 -2 6 23 19 26 30 6 12 -20 69 -47 106 -49 38 -2 61 -21 53
-43 -3 -9 -2 -12 5 -8 6 3 8 17 5 30 -8 32 11 31 26 -1 6 -14 17 -25 25 -25 7
0 13 -8 13 -17 0 -14 2 -15 9 -4 12 19 52 5 44 -16 -4 -11 -2 -14 8 -11 8 3
14 11 14 18 0 7 6 15 14 18 9 3 12 0 8 -10 -3 -10 8 -27 30 -47 33 -29 36 -30
49 -14 10 13 16 15 21 7 5 -7 23 -10 41 -8 24 3 32 0 32 -12 0 -32 20 -1 22
34 l1 37 4 -32 c4 -31 23 -48 23 -20 0 9 2 9 9 -1 7 -11 16 -10 52 6 45 21 69
19 69 -3 0 -27 20 -26 31 2 10 26 12 27 23 11 16 -22 30 -24 23 -3 -4 8 -2 17
3 20 6 4 10 2 10 -4 0 -5 12 -9 26 -8 15 1 29 -4 32 -11 3 -9 -3 -12 -15 -10
-11 2 -21 0 -21 -4 -1 -5 0 -8 3 -8 3 0 17 0 31 0 18 0 24 4 21 13 -3 8 -1 20
3 27 7 11 11 11 26 -1 16 -13 17 -12 12 8 -4 15 -2 20 8 16 7 -2 11 -10 8 -16
-3 -8 9 -13 37 -13 29 -1 37 2 30 9 -19 19 -12 27 14 15 15 -7 24 -17 21 -25
-8 -19 7 -16 37 7 l26 20 3 -20 c4 -24 23 -23 22 2 0 9 9 18 23 21 15 3 23 -1
23 -9 0 -8 -4 -14 -10 -14 -5 0 -10 -9 -10 -20 0 -11 5 -20 10 -20 6 0 10 9
10 20 0 17 6 20 45 18 31 -1 45 -6 45 -15 0 -8 5 -11 10 -8 6 3 10 16 10 28 0
18 4 15 26 -16 24 -36 27 -37 44 -22 15 14 18 14 23 1 4 -9 14 -12 27 -9 26 7
70 -15 70 -35 0 -11 8 -13 29 -9 21 4 37 0 55 -14 13 -10 40 -21 58 -23 55 -6
98 -28 98 -51 0 -18 1 -18 13 4 19 38 37 38 37 -1 1 -30 2 -31 14 -15 7 9 19
17 26 17 20 0 69 -33 73 -49 4 -13 5 -13 6 2 1 20 17 23 24 5 4 -10 8 -10 15
1 8 11 14 9 31 -8 11 -11 21 -28 21 -36 0 -17 16 -20 25 -5 3 5 18 7 33 4 52
-10 87 -10 100 -1 9 7 12 2 12 -18 l0 -26 26 20 c31 25 44 26 44 7 0 -24 20
-29 36 -10 15 18 15 18 11 -3 -3 -13 -2 -25 3 -28 11 -7 20 22 13 43 -5 15 -4
15 13 -2 14 -13 15 -20 6 -23 -19 -7 -3 -23 24 -23 17 0 27 -8 35 -27 7 -19
13 -23 21 -15 8 8 6 15 -6 27 -20 20 -20 29 -1 45 15 13 19 8 16 -22 -3 -25
19 -32 34 -12 10 13 14 15 15 5 0 -11 3 -11 16 0 15 12 16 10 10 -19 -6 -27
-5 -31 8 -26 9 4 16 1 16 -6 0 -10 3 -10 14 -1 10 8 16 9 21 1 3 -5 1 -10 -6
-10 -7 0 -10 -3 -6 -6 14 -14 47 8 47 32 0 15 6 24 15 24 16 0 21 -26 6 -32
-15 -5 -17 -61 -3 -65 7 -3 12 3 12 14 0 10 8 26 19 35 10 8 21 22 23 29 2 7
10 9 16 5 13 -8 -1 -44 -22 -58 -6 -4 -7 -11 -2 -15 5 -4 11 -2 13 5 3 6 11
12 18 12 7 0 16 -6 19 -12 3 -7 5 4 4 24 -2 20 0 39 3 43 3 3 26 -4 50 -15 24
-11 38 -20 31 -20 -20 0 -42 -26 -42 -49 0 -29 18 -26 30 4 8 21 16 25 50 25
22 0 40 -4 40 -10 0 -5 -7 -10 -15 -10 -8 0 -15 -4 -15 -10 0 -5 6 -10 14 -10
8 0 17 -6 19 -12 3 -7 6 -3 6 10 1 25 19 30 27 7 9 -22 24 -18 24 5 0 17 7 20
43 20 50 0 62 -7 45 -27 -17 -21 0 -29 20 -9 12 14 14 20 5 23 -7 3 -13 14
-13 25 0 20 1 20 19 4 11 -10 22 -28 25 -42 9 -34 35 -32 28 2 -3 16 -1 25 5
21 5 -3 21 0 36 8 30 16 40 10 26 -16 -7 -15 -6 -19 6 -19 13 0 18 20 14 57 0
4 9 10 20 15 25 9 77 -8 85 -28 10 -27 26 -4 19 28 -6 33 -8 32 40 13 7 -3 23
4 35 15 25 23 44 19 35 -8 -3 -10 2 -8 12 7 14 18 19 20 26 10 6 -10 9 -6 9
13 0 28 21 50 28 29 3 -8 8 -6 18 6 13 17 13 17 14 1 0 -35 20 -17 20 18 0 41
19 37 21 -4 1 -15 3 -20 6 -11 5 21 69 42 120 40 35 -1 43 2 44 16 0 14 2 15
6 3 10 -24 27 -31 39 -14 7 8 35 17 63 21 31 3 51 11 51 18 0 9 15 11 51 9 28
-2 56 -1 62 3 7 4 28 6 49 4 22 -1 38 2 38 8 0 6 5 11 11 11 5 0 8 -4 5 -8 -2
-4 0 -14 5 -22 7 -12 11 -13 17 -2 5 7 21 20 35 27 23 12 27 12 27 -1 0 -8 5
-14 10 -14 6 0 10 5 10 10 0 6 12 10 26 10 14 0 23 -4 19 -10 -14 -23 43 4 62
29 11 15 12 15 18 0 4 -11 16 -15 38 -13 38 5 87 23 87 34 0 14 44 20 52 7 4
-7 8 5 8 27 0 33 -3 38 -20 33 -11 -3 -18 -1 -14 4 3 5 -2 9 -12 9 -11 0 -15
6 -11 20 3 13 0 20 -10 20 -8 0 -21 7 -29 15 -9 8 -25 15 -38 15 -12 0 -27 5
-32 10 -12 12 -125 42 -132 35 -3 -3 -11 0 -18 5 -6 6 -16 10 -20 8 -5 -1 -25
2 -44 7 -19 4 -42 9 -50 10 -8 1 -28 7 -43 14 -16 6 -35 11 -43 11 -8 0 -14 5
-14 10 0 6 -7 10 -15 10 -8 0 -15 5 -15 10 0 6 -9 14 -20 18 -29 11 -120 90
-160 139 -19 24 -41 49 -47 57 -7 8 -13 18 -13 22 0 4 -11 17 -25 30 -14 13
-25 32 -25 44 0 11 -5 20 -11 20 -5 0 -7 4 -4 10 3 5 2 10 -3 10 -12 0 -40 62
-47 106 -4 22 -9 46 -12 54 -15 37 -34 187 -26 205 2 7 -2 19 -10 26 -8 8 -14
32 -15 54 0 22 -6 58 -12 80 -6 22 -11 49 -11 60 0 11 -4 22 -9 25 -5 3 -10
28 -12 55 -2 28 -6 52 -10 55 -3 3 -9 32 -12 65 -9 94 -16 126 -38 172 -13 27
-18 52 -14 68 4 14 2 25 -3 25 -4 0 -11 27 -15 60 -4 33 -13 66 -21 73 -10 11
-11 17 -2 26 8 8 7 18 -5 39 -19 34 -32 99 -19 104 5 2 4 14 -2 28 -9 23 -18
72 -19 110 -1 8 2 24 6 35 6 16 6 17 -3 5 -8 -12 -11 -6 -11 28 0 23 -4 42
-10 42 -5 0 -10 18 -10 39 0 22 -5 41 -12 43 -6 2 -15 31 -19 64 -4 32 -10 70
-13 84 -3 14 -11 52 -17 85 -14 75 -13 71 -29 125 -7 25 -15 52 -16 60 -2 8
-7 16 -13 18 -6 2 -8 18 -5 35 3 26 2 28 -5 12 -8 -17 -10 -16 -10 12 -1 17
-5 34 -11 38 -5 3 -7 12 -4 20 10 26 -16 117 -42 148 -19 23 -24 38 -20 58 3
16 1 29 -5 31 -6 2 -12 18 -13 36 -1 18 -8 37 -16 42 -10 6 -11 10 -3 10 9 0
6 11 -7 36 -11 19 -18 40 -14 45 3 5 1 16 -5 23 -6 7 -12 26 -13 42 -1 16 -5
34 -9 39 -3 6 -10 28 -14 50 -4 22 -11 45 -16 51 -8 10 -19 53 -36 144 -3 19
-10 38 -15 41 -6 4 -11 24 -12 45 -1 22 -5 44 -9 50 -3 6 -8 31 -10 56 -2 24
-9 53 -15 65 -7 12 -12 33 -12 47 0 14 -4 27 -8 30 -5 3 -17 36 -27 73 -10 37
-23 77 -28 88 -17 32 -55 144 -51 148 3 2 -2 10 -11 17 -8 7 -15 18 -15 24 0
14 -53 120 -70 141 -7 8 -9 15 -5 15 4 0 1 7 -6 17 -9 10 -15 46 -16 102 -2
103 -6 138 -20 172 -6 14 -14 51 -18 82 -4 32 -11 60 -16 63 -5 3 -9 14 -9 25
0 11 -9 38 -21 60 -11 23 -18 43 -15 46 3 3 0 15 -6 27 -11 20 -28 101 -29
139 0 9 -5 17 -10 17 -5 0 -7 11 -3 25 3 14 2 25 -4 25 -5 0 -12 15 -15 33 -3
17 -11 55 -16 82 -6 28 -16 82 -21 120 -11 72 -44 196 -61 228 -6 10 -7 27 -4
38 4 12 1 21 -9 25 -10 4 -16 18 -16 36 0 17 -11 67 -25 112 -13 44 -33 126
-45 181 -11 55 -31 141 -45 190 -15 50 -28 101 -30 115 -2 14 -11 51 -19 83
-9 31 -15 61 -13 66 4 16 -62 79 -135 127 -40 27 -111 89 -158 138 -238 252
-254 261 -500 286 -76 7 -157 30 -185 51 -5 4 -48 26 -95 49 -47 24 -92 49
-101 57 -9 7 -52 31 -95 53 -43 21 -90 46 -104 54 -14 9 -72 36 -130 60 -149
63 -241 116 -323 187 -45 39 -109 80 -172 110 -55 27 -118 60 -140 72 -22 13
-58 30 -80 37 -22 7 -58 23 -81 36 -22 13 -46 24 -53 24 -6 0 -47 16 -89 36
-42 20 -108 49 -147 64 -162 64 -199 81 -223 96 -13 9 -47 24 -75 34 -29 9
-72 27 -97 38 -25 12 -67 30 -95 40 -27 11 -95 38 -150 60 -55 22 -122 46
-150 53 -27 7 -64 23 -83 36 -40 27 -93 43 -142 43 -38 0 -127 38 -175 74 -36
28 -92 47 -137 48 -18 0 -61 14 -96 30 -86 40 -225 78 -290 78 -57 0 -115 21
-135 50 -10 14 -77 38 -222 80 -16 5 -57 14 -90 21 -33 6 -94 25 -135 41 -41
17 -109 39 -150 49 -41 11 -84 24 -95 29 -85 42 -371 118 -485 130 -80 8 -111
19 -177 63 -42 29 -93 95 -93 121 0 8 -4 17 -9 20 -5 3 -5 25 0 48 11 57 11
243 0 291 -9 37 1 436 15 663 6 82 3 112 -11 158 -10 31 -22 56 -26 56 -5 0
-9 7 -9 15 0 8 4 15 10 15 5 0 25 11 45 24 56 38 99 41 195 11 47 -14 101 -30
120 -35 198 -49 454 -121 620 -175 41 -13 111 -33 155 -44 73 -18 146 -39 320
-91 33 -10 105 -28 160 -40 55 -12 148 -35 206 -51 59 -16 119 -29 134 -29 15
0 68 -15 119 -34 50 -19 143 -44 206 -55 63 -12 135 -26 160 -33 129 -31 221
-47 271 -48 30 0 59 -4 65 -10 11 -11 244 -55 344 -65 36 -3 79 -10 95 -15 17
-5 77 -14 135 -20 125 -13 159 -18 225 -30 157 -29 472 -39 627 -19 67 9 99 9
128 0 70 -21 312 -15 252 6 -10 4 -10 9 3 23 14 15 22 17 48 8 18 -6 39 -18
47 -28 21 -25 72 -31 122 -16 36 11 46 10 56 -1 7 -7 31 -13 53 -13 23 0 68
-7 100 -15 33 -9 64 -13 69 -10 5 3 18 -3 30 -15 22 -22 51 -26 81 -9 21 11
19 39 -5 68 -6 7 -11 21 -11 29 0 9 -11 19 -25 22 -23 5 -25 11 -25 60 0 30 3
60 7 66 8 11 -4 62 -22 95 -5 9 -14 45 -20 80 -10 58 -26 116 -53 191 -5 15
-13 26 -17 23 -4 -2 -7 16 -8 41 0 25 -4 50 -9 57 -15 21 -32 81 -34 122 -1
22 -7 49 -12 60 -6 11 -9 37 -9 57 1 21 -4 48 -11 59 -9 14 -9 22 -1 27 12 8
13 76 1 88 -3 4 -4 18 -1 31 4 13 1 30 -5 37 -7 8 -9 25 -6 39 7 27 -11 107
-24 107 -5 0 -7 8 -4 19 3 11 -2 21 -13 25 -16 6 -16 7 0 19 16 12 16 14 -3
38 -16 20 -17 29 -8 39 9 10 9 14 0 17 -7 3 -13 16 -13 29 0 14 -4 23 -9 20
-4 -3 -8 38 -9 91 0 52 -4 98 -8 102 -17 12 -34 51 -34 78 0 16 -6 62 -14 103
-8 41 -12 78 -9 83 6 10 -12 79 -29 110 -5 11 -7 21 -4 24 3 4 -1 11 -9 17
-19 14 -38 118 -32 174 2 23 0 45 -5 48 -5 4 -7 17 -4 29 3 13 2 26 -3 30 -6
3 -13 27 -17 53 -3 26 -10 52 -15 58 -5 6 -14 55 -20 110 -6 54 -15 108 -19
119 -16 41 -44 191 -42 228 2 20 -3 47 -9 60 -7 12 -16 64 -20 116 -5 53 -13
98 -20 102 -6 4 -8 12 -4 19 12 19 6 113 -6 121 -7 4 -10 25 -7 48 2 22 0 41
-5 41 -4 0 -7 8 -5 18 1 9 -1 23 -5 29 -4 7 -9 39 -11 71 -1 32 -11 74 -20 93
-16 30 -25 106 -26 217 0 18 -3 31 -7 29 -5 -3 -9 19 -9 49 -2 74 -13 126 -25
119 -10 -7 -12 4 -9 53 l2 32 -2571 0 c-1414 0 -2571 -2 -2571 -4 0 -8 102
-304 115 -331 7 -16 21 -59 30 -95 13 -53 58 -201 83 -270 10 -28 50 -161 62
-205 97 -359 153 -584 175 -701 13 -66 30 -147 39 -180 16 -57 54 -266 61
-332 2 -18 10 -65 19 -105 48 -226 93 -634 110 -994 3 -62 10 -122 16 -134 15
-27 5 -80 -22 -114 -20 -26 -20 -36 -19 -342 0 -174 3 -330 6 -347 3 -17 9
-116 13 -221 6 -151 12 -197 26 -225 15 -30 17 -60 16 -205 -1 -93 -3 -186 -4
-205 -2 -19 -6 -111 -10 -205 -4 -93 -14 -206 -21 -250 -8 -44 -19 -125 -25
-180 -5 -55 -17 -147 -25 -205 -8 -58 -15 -124 -15 -148 0 -23 -15 -91 -34
-150 -18 -59 -41 -143 -50 -187 -10 -44 -19 -87 -20 -95 -14 -63 -166 -559
-186 -605 -5 -11 -25 -68 -44 -126 -20 -59 -54 -145 -76 -192 -22 -46 -40 -90
-40 -97 0 -6 -6 -24 -14 -38 -31 -59 -64 -128 -71 -152 -12 -37 -117 -248
-150 -300 -16 -25 -44 -74 -63 -110 -19 -36 -57 -103 -86 -150 -80 -132 -87
-144 -93 -162 -3 -10 -9 -18 -14 -18 -5 0 -9 -6 -9 -12 0 -7 -25 -44 -55 -83
-30 -38 -67 -88 -83 -110 -15 -21 -39 -52 -55 -68 -15 -15 -38 -46 -52 -67
-13 -21 -34 -49 -47 -63 -13 -13 -45 -53 -73 -88 -27 -35 -68 -82 -90 -104
-23 -22 -48 -49 -56 -60 -36 -48 -277 -268 -355 -324 -19 -13 -34 -28 -34 -33
0 -4 -6 -8 -13 -8 -7 0 -29 -15 -49 -32 -76 -68 -134 -115 -158 -128 -14 -7
-32 -19 -40 -27 -43 -39 -288 -173 -318 -173 -6 0 -23 -5 -39 -12 -15 -6 -32
-12 -38 -14 -59 -18 -106 -25 -195 -29 -92 -4 -110 -2 -148 17 -57 27 -82 82
-82 176 0 62 4 74 90 249 49 100 90 185 90 188 0 3 9 24 19 48 34 75 78 179
130 310 28 71 61 149 72 174 12 26 28 69 36 96 8 28 25 73 38 101 13 28 31 71
40 96 34 96 143 429 165 500 12 41 26 89 31 105 32 105 80 281 95 345 9 41 29
120 45 175 29 103 39 147 84 370 50 252 56 281 76 365 44 191 133 762 159
1020 6 58 15 139 20 180 12 92 27 294 35 455 4 66 10 172 16 235 5 63 12 295
15 515 11 666 -22 1354 -92 1970 -14 121 -32 276 -39 345 -14 122 -84 605
-105 725 -6 33 -15 85 -20 115 -22 142 -124 674 -166 868 l-16 72 -2019 0
-2019 0 0 -1959z m9406 440 c-4 -6 -18 -11 -32 -11 -19 0 -24 5 -24 24 0 13 6
26 13 29 16 6 51 -28 43 -42z m274 -1361 c0 -5 -2 -10 -4 -10 -3 0 -8 5 -11
10 -3 6 -1 10 4 10 6 0 11 -4 11 -10z m-220 -176 c0 -8 -4 -14 -10 -14 -5 0
-10 9 -10 21 0 11 5 17 10 14 6 -3 10 -13 10 -21z m821 -56 c10 -13 18 -28 19
-34 0 -6 8 -18 18 -28 23 -20 81 -11 100 16 20 27 60 23 72 -8 28 -71 0 -144
-55 -144 -33 0 -95 26 -115 48 -30 32 -60 90 -64 119 -1 17 -6 35 -10 42 -13
20 15 11 35 -11z m-499 -206 c34 12 42 7 34 -20 -6 -17 -64 -49 -71 -40 -12
15 -34 69 -26 64 6 -4 11 -1 12 6 0 9 4 8 11 -3 9 -14 17 -15 40 -7z m98 -421
c0 -54 -24 -107 -52 -114 -29 -8 -43 7 -55 59 l-10 42 51 26 c28 14 54 25 59
26 4 0 7 -17 7 -39z m-324 -39 c20 -32 26 -79 12 -101 -11 -19 -14 -19 -30 -4
-10 9 -18 22 -18 30 0 7 -4 13 -10 13 -5 0 -8 6 -6 13 3 6 7 24 10 40 7 31 26
35 42 9z m774 -124 c0 -10 -5 -18 -11 -18 -18 0 -41 30 -35 45 5 13 9 13 26 3
11 -7 20 -21 20 -30z m910 -51 c0 -5 -4 -5 -10 -2 -5 3 -10 14 -10 23 0 15 2
15 10 2 5 -8 10 -19 10 -23z m-1920 8 c0 -8 -4 -15 -10 -15 -5 0 -10 7 -10 15
0 8 5 15 10 15 6 0 10 -7 10 -15z m913 -106 c-4 -15 -8 -17 -14 -8 -8 14 -3
29 11 29 4 0 6 -9 3 -21z m-7993 -1593 c-12 -37 -40 -41 -40 -4 0 10 5 16 10
13 6 -3 10 1 10 10 0 9 -4 13 -10 10 -5 -3 -10 -2 -10 4 0 12 32 20 44 10 4
-4 3 -23 -4 -43z m9500 -2445 c0 -11 5 -23 10 -26 12 -7 13 -75 2 -92 -4 -7
-22 -12 -40 -10 -23 1 -32 7 -32 20 0 10 -5 15 -10 12 -6 -3 -13 2 -16 12 -3
10 -10 26 -15 35 -13 24 -12 28 9 28 9 0 28 9 42 20 32 25 50 25 50 1z m-8335
-4801 c-3 -5 -10 -10 -16 -10 -5 0 -9 5 -9 10 0 6 7 10 16 10 8 0 12 -4 9 -10z
m4852 -462 c-3 -8 -6 -5 -6 6 -1 11 2 17 5 13 3 -3 4 -12 1 -19z m-17 -8 c0
-5 -5 -10 -11 -10 -5 0 -7 5 -4 10 3 6 8 10 11 10 2 0 4 -4 4 -10z m328 -105
c-3 -3 -9 2 -12 12 -6 14 -5 15 5 6 7 -7 10 -15 7 -18z m127 -45 c3 -5 -1 -10
-10 -10 -9 0 -13 5 -10 10 3 6 8 10 10 10 2 0 7 -4 10 -10z m445 0 c0 -5 -4
-10 -10 -10 -5 0 -10 5 -10 10 0 6 5 10 10 10 6 0 10 -4 10 -10z m-203 -32
c-3 -8 -6 -5 -6 6 -1 11 2 17 5 13 3 -3 4 -12 1 -19z m123 -12 c0 -3 -4 -8
-10 -11 -5 -3 -10 -1 -10 4 0 6 5 11 10 11 6 0 10 -2 10 -4z m375 -55 c3 -5 1
-12 -5 -16 -5 -3 -10 1 -10 9 0 18 6 21 15 7z m602 3 c-3 -3 -12 -4 -19 -1 -8
3 -5 6 6 6 11 1 17 -2 13 -5z m1083 -150 c0 -2 -7 -4 -15 -4 -8 0 -15 4 -15
10 0 5 7 7 15 4 8 -4 15 -8 15 -10z m-650 -4 c0 -5 -4 -10 -10 -10 -5 0 -10 5
-10 10 0 6 5 10 10 10 6 0 10 -4 10 -10z m1446 -207 c-10 -10 -19 5 -10 18 6
11 8 11 12 0 2 -7 1 -15 -2 -18z m1624 -43 c0 -5 -2 -10 -4 -10 -3 0 -8 5 -11
10 -3 6 -1 10 4 10 6 0 11 -4 11 -10z m-985 -100 c3 -5 -1 -10 -9 -10 -9 0
-16 5 -16 10 0 6 4 10 9 10 6 0 13 -4 16 -10z m515 0 c0 -5 -4 -10 -10 -10 -5
0 -10 5 -10 10 0 6 5 10 10 10 6 0 10 -4 10 -10z m-130 -54 c0 -11 -19 -15
-25 -6 -3 5 1 10 9 10 9 0 16 -2 16 -4z"/>
<path d="M16516 16028 c3 -35 14 -90 24 -123 10 -33 20 -78 24 -100 30 -208
50 -322 56 -335 4 -8 18 -72 29 -142 12 -70 26 -140 32 -155 5 -14 12 -38 14
-52 19 -120 27 -171 29 -201 6 -62 27 -164 36 -175 5 -6 14 -40 20 -75 5 -36
15 -83 21 -105 6 -22 13 -65 15 -95 3 -30 9 -64 13 -75 13 -27 20 -64 36 -175
7 -52 22 -124 34 -159 11 -36 18 -67 16 -71 -2 -4 5 -51 16 -105 11 -54 18
-104 15 -112 -3 -8 -1 -23 4 -33 5 -10 16 -63 25 -117 19 -130 41 -231 71
-328 14 -44 29 -113 35 -155 11 -94 30 -182 41 -196 4 -6 10 -37 13 -68 5 -59
41 -193 55 -201 4 -2 5 -16 2 -30 -3 -16 0 -25 8 -25 7 0 10 -7 6 -16 -3 -8 1
-31 9 -51 17 -40 40 -134 50 -203 3 -25 9 -59 11 -77 5 -30 3 -33 -33 -42 -60
-16 -233 -35 -288 -31 -51 3 -96 3 -330 3 -275 -1 -494 -3 -581 -5 -86 -3 -94
-1 -155 31 -47 24 -81 35 -129 38 -90 7 -233 -12 -305 -41 -75 -30 -165 -47
-275 -53 -47 -2 -105 -10 -130 -18 -25 -8 -74 -17 -110 -21 -67 -7 -200 -63
-247 -104 -13 -11 -40 -28 -60 -37 -51 -25 -72 -66 -77 -149 -2 -38 -5 -76 -8
-84 -9 -26 -27 -113 -37 -185 -20 -138 -57 -502 -71 -695 -6 -85 -15 -193 -20
-240 -5 -47 -12 -150 -16 -230 -3 -80 -8 -158 -9 -175 -2 -16 -7 -183 -10
-370 -4 -187 -13 -407 -21 -490 -23 -253 -35 -573 -36 -962 0 -248 4 -378 11
-391 6 -12 11 -63 11 -115 0 -199 46 -529 96 -685 58 -181 127 -271 309 -407
61 -45 124 -95 140 -111 17 -16 61 -51 99 -79 37 -27 84 -66 105 -85 80 -78
150 -130 231 -172 47 -25 105 -56 130 -70 98 -56 162 -87 207 -102 45 -15 146
-75 168 -101 21 -24 93 -75 107 -75 17 0 170 -99 268 -174 41 -31 122 -80 180
-108 58 -28 143 -79 190 -113 47 -34 110 -78 140 -98 30 -20 87 -59 125 -86
69 -50 112 -80 410 -287 266 -184 389 -267 445 -298 74 -41 179 -110 357 -233
243 -168 546 -366 590 -385 15 -7 55 -32 88 -56 33 -23 85 -60 115 -81 66 -47
132 -106 108 -98 -24 9 -47 -37 -42 -83 7 -57 27 -144 36 -156 4 -6 10 -29 12
-50 1 -21 5 -46 9 -54 6 -16 24 -134 32 -215 8 -71 12 -98 18 -115 28 -76 52
-183 63 -280 8 -74 16 -118 25 -148 6 -18 8 -40 5 -48 -3 -9 -2 -23 3 -32 5
-9 12 -38 15 -65 4 -26 11 -59 16 -73 6 -14 7 -30 4 -36 -4 -5 -2 -20 3 -31
22 -48 33 -96 33 -143 0 -27 7 -70 15 -96 8 -27 11 -48 8 -48 -3 0 -1 -6 4
-12 6 -7 13 -35 17 -63 8 -60 30 -128 44 -133 5 -1 8 -21 6 -44 -2 -23 1 -46
6 -53 5 -6 9 -20 8 -30 0 -11 2 -50 5 -86 7 -77 -4 -134 -41 -209 -31 -63 -46
-80 -87 -100 -34 -17 -45 -27 -61 -55 -8 -14 -20 -19 -38 -17 -14 1 -26 -2
-26 -8 0 -6 -4 -9 -9 -6 -5 3 -11 -1 -15 -9 -3 -8 -15 -15 -26 -15 -11 0 -20
-5 -20 -11 0 -7 14 -8 41 -4 33 6 43 4 54 -11 7 -11 11 -22 9 -26 -9 -15 27
-56 45 -51 9 2 23 -3 31 -11 16 -20 99 -58 111 -50 5 3 9 1 9 -5 0 -6 19 -15
41 -21 24 -7 52 -24 66 -41 14 -16 31 -29 39 -29 8 0 14 -5 14 -11 0 -8 4 -8
14 0 10 8 16 9 21 1 3 -5 15 -10 26 -10 10 0 19 -5 19 -11 0 -5 4 -7 10 -4 10
6 58 -21 76 -44 6 -8 16 -11 22 -7 6 4 20 2 31 -4 11 -5 33 -11 49 -13 17 -2
37 -11 46 -19 8 -9 39 -19 68 -23 29 -4 57 -10 62 -13 13 -7 52 -13 94 -12 17
0 32 -4 32 -9 0 -13 56 -25 103 -22 26 1 39 -3 43 -14 7 -17 37 -20 65 -5 15
9 19 7 19 -5 0 -9 5 -13 10 -10 6 4 26 -3 44 -14 27 -17 39 -19 60 -12 16 7
27 7 31 1 4 -6 3 -10 -1 -10 -3 0 -1 -7 6 -15 7 -8 21 -15 32 -15 10 0 32 -10
48 -22 16 -12 33 -19 36 -15 4 4 13 -1 20 -11 12 -15 15 -15 24 -2 9 13 11 13
19 1 8 -12 12 -12 25 -2 13 11 16 11 16 -2 0 -10 6 -14 15 -11 8 4 15 1 15 -5
0 -6 19 -11 45 -11 35 0 45 -4 45 -16 0 -10 6 -14 15 -10 8 3 15 1 15 -5 0 -6
6 -9 14 -6 8 3 17 -1 20 -10 4 -8 12 -13 19 -10 8 3 19 -4 25 -14 7 -10 19
-19 26 -19 8 0 18 -9 21 -20 5 -16 10 -18 26 -9 27 14 64 8 64 -11 0 -10 12
-16 33 -18 17 -2 32 -7 32 -13 0 -5 6 -9 14 -9 7 0 19 -7 26 -15 16 -19 30
-19 30 1 0 14 1 14 16 0 8 -9 27 -19 42 -22 15 -3 41 -12 57 -19 17 -7 44 -17
60 -21 17 -4 35 -9 40 -13 6 -3 38 -6 73 -6 35 0 66 -5 70 -11 13 -19 72 -37
103 -30 18 3 28 2 24 -4 -3 -6 1 -7 10 -4 9 4 23 0 33 -8 19 -17 222 -68 269
-68 17 0 46 -7 66 -15 19 -8 37 -12 40 -9 3 4 29 -2 57 -11 29 -10 64 -15 80
-11 16 3 32 2 34 -3 5 -8 105 -29 136 -29 8 0 38 -5 65 -10 28 -6 71 -9 97 -7
31 2 51 -1 55 -9 16 -25 139 -43 159 -23 4 4 22 5 39 1 27 -5 33 -2 38 15 4
15 13 21 34 21 38 0 74 26 54 39 -10 6 -7 9 10 9 13 1 33 3 43 4 15 2 23 -6
32 -37 9 -27 13 -33 13 -17 1 13 10 27 25 33 13 6 28 21 34 34 8 18 16 21 44
17 31 -5 31 -6 8 -12 -16 -4 -26 -14 -28 -30 -4 -22 -3 -22 13 -7 22 23 41 21
58 -3 14 -20 15 -20 22 -3 5 10 7 24 6 31 -3 18 17 15 28 -5 6 -12 22 -18 50
-18 23 0 41 -3 41 -7 0 -5 5 -8 11 -8 6 0 9 6 6 13 -4 10 8 14 42 16 46 2 48
1 58 -31 8 -24 11 -27 12 -12 1 17 7 21 29 19 25 -2 35 -4 86 -24 15 -6 26 -1
44 18 13 14 21 21 18 16 -2 -6 0 -17 5 -25 8 -12 12 -12 16 -2 2 6 9 9 15 6 6
-4 20 -7 32 -8 15 -1 21 -8 20 -24 -1 -29 14 -29 18 0 5 34 53 37 83 4 12 -13
20 -28 16 -32 -3 -4 0 -4 7 0 7 4 10 12 7 17 -7 10 6 12 29 3 9 -3 13 -11 10
-16 -4 -6 4 -5 16 2 19 10 24 10 32 -4 12 -21 42 -22 34 -1 -3 8 -1 15 4 15 6
0 10 -6 10 -14 0 -16 34 -31 50 -21 6 3 13 -1 16 -9 3 -9 10 -13 15 -10 6 3
16 1 24 -6 10 -8 19 -8 34 0 17 9 21 8 21 -5 0 -8 -5 -15 -11 -15 -5 0 -7 -5
-4 -10 4 -6 18 -2 36 10 16 12 30 17 30 11 1 -6 2 -16 3 -23 1 -16 76 -21 76
-5 0 7 4 6 10 -3 7 -10 12 -12 18 -4 18 27 82 45 82 23 0 -21 30 -40 51 -34
14 5 27 1 39 -12 11 -12 29 -19 49 -17 18 1 31 -3 31 -9 0 -7 4 -6 9 2 5 8 7
21 3 29 -4 11 -1 14 10 10 9 -4 21 -1 27 5 8 8 11 5 11 -11 0 -12 5 -22 10
-22 6 0 10 7 10 16 0 13 7 15 33 10 17 -4 41 -8 52 -9 11 -1 26 -6 33 -10 6
-5 17 -5 24 -1 6 4 16 0 22 -8 10 -14 55 -19 66 -8 14 15 62 41 67 36 3 -3 6
-24 6 -46 0 -30 5 -44 18 -51 20 -10 54 2 61 21 2 6 12 3 23 -8 26 -24 65 -35
65 -17 0 26 43 25 71 -1 25 -24 28 -24 37 -9 9 16 11 16 30 -3 11 -11 18 -22
16 -24 -2 -3 10 -5 26 -5 17 0 26 4 19 7 -7 5 0 13 20 23 17 8 33 12 36 7 3
-5 20 -12 38 -15 17 -4 37 -11 42 -15 11 -8 80 -24 110 -25 16 -1 19 -7 17
-27 -3 -29 16 -48 28 -28 5 9 9 9 14 1 10 -15 53 -14 59 2 4 9 6 9 6 0 1 -19
22 -16 37 5 13 16 13 16 14 0 0 -17 144 -18 2873 -18 l2873 0 2 27 c1 14 22
63 47 109 25 46 45 95 45 112 0 24 8 37 40 59 25 18 40 36 40 49 0 12 6 24 13
27 7 2 21 22 32 43 11 22 28 45 38 52 9 7 15 18 11 23 -7 12 74 179 87 179 5
0 12 12 15 28 4 15 19 41 34 57 15 17 35 50 44 75 10 25 23 48 29 52 7 4 12
14 12 22 0 9 4 16 8 16 9 -1 37 26 37 35 0 3 -10 3 -22 -1 -20 -6 -19 -4 5 20
16 16 28 42 32 71 4 25 11 43 15 40 4 -2 5 -16 2 -30 -2 -15 0 -25 7 -25 6 0
11 14 11 31 0 22 5 32 19 36 24 6 67 67 77 108 4 17 12 36 17 43 6 8 10 29 9
47 -2 26 1 33 15 31 10 0 19 7 21 19 4 22 32 82 60 130 10 17 24 46 31 65 7
19 22 54 32 77 11 24 19 47 19 53 0 5 10 18 21 29 23 21 44 54 55 84 4 12 13
17 25 14 16 -4 17 -2 8 14 -9 18 -5 23 15 20 5 -1 4 5 -3 13 -10 12 -8 19 8
35 12 12 24 21 29 21 4 0 8 10 8 22 1 13 8 38 15 56 12 28 12 34 -1 43 -13 8
-13 11 3 23 9 7 17 18 17 25 0 6 7 14 16 18 8 3 13 11 10 18 -2 7 4 19 15 28
10 9 19 24 19 32 0 8 5 15 10 15 6 0 10 9 10 20 0 11 7 23 17 27 14 5 13 8 -5
14 -12 5 -22 14 -22 21 0 9 3 9 10 -2 5 -8 10 -12 12 -10 20 31 27 53 22 62
-4 7 -3 8 4 4 7 -4 12 -1 12 7 0 21 46 67 67 67 14 0 15 2 4 9 -10 7 -4 22 29
71 37 55 41 65 30 85 -18 34 -9 60 24 63 22 3 27 8 23 23 -3 10 -2 17 3 14 4
-2 10 -18 14 -35 3 -19 10 -29 17 -25 6 4 9 16 6 26 -6 21 8 26 17 7 3 -7 3 6
0 30 -5 34 -3 42 10 42 9 0 16 8 16 20 0 10 9 24 20 30 11 6 20 21 20 35 0 13
4 26 9 30 5 3 7 20 5 38 -3 17 0 46 7 62 11 29 12 29 18 7 6 -23 6 -23 24 7
10 17 16 31 13 31 -3 0 3 9 15 21 11 11 25 34 31 50 5 16 14 29 18 29 5 0 11
18 15 41 8 46 32 76 58 71 11 -2 17 3 17 16 0 11 6 23 13 25 9 4 8 8 -3 17
-12 9 -12 13 -2 17 16 6 42 68 42 98 0 14 7 25 19 28 14 3 18 11 14 26 -4 15
-1 21 12 21 12 0 15 5 10 20 -4 13 -2 20 7 20 7 0 24 14 38 31 14 17 35 43 48
57 13 14 20 33 17 42 -3 10 2 23 10 30 11 9 14 22 10 37 -4 16 -1 23 9 23 8 0
20 24 30 65 21 82 20 85 -6 82 -17 -1 -22 3 -20 15 3 21 -27 31 -64 22 -19 -5
-25 -4 -20 5 9 15 -21 26 -37 14 -17 -14 -205 -9 -219 5 -7 7 -20 12 -30 12
-10 0 -35 9 -55 20 -21 11 -48 20 -60 20 -12 0 -25 5 -28 10 -9 15 -75 41 -86
34 -5 -3 -9 -1 -9 5 0 5 -21 9 -46 8 -44 -2 -47 0 -66 37 -11 21 -26 68 -33
105 -25 117 -96 320 -190 546 -19 44 -45 133 -59 198 -30 141 -96 286 -161
356 -36 39 -63 80 -153 236 -6 11 -34 67 -63 125 -28 58 -71 135 -95 172 -23
37 -44 73 -45 80 -4 30 1 40 17 34 13 -5 15 -2 11 14 -4 15 0 20 15 20 13 0
18 5 15 13 -3 8 -1 20 4 28 8 12 11 12 20 -1 8 -12 9 -9 5 11 -4 19 -1 29 9
33 8 3 15 15 15 26 0 12 4 19 9 15 5 -3 18 6 29 20 11 14 25 25 32 25 7 0 10
8 7 19 -3 13 7 30 30 53 19 18 39 43 44 56 5 12 15 22 24 22 8 0 15 6 15 14 0
8 14 26 30 39 17 14 30 35 30 46 0 12 5 21 10 21 6 0 10 9 10 20 0 11 5 20 10
20 6 0 10 5 10 10 0 14 41 72 58 83 6 4 12 22 12 39 0 22 4 29 14 25 10 -4 18
5 26 28 6 19 19 39 28 45 9 5 13 10 8 10 -5 0 9 17 30 37 21 20 38 38 37 40
-8 10 0 21 18 26 16 4 19 11 14 26 -3 12 -3 21 2 21 9 0 25 37 42 98 7 23 17
42 23 42 7 0 9 13 5 34 -4 24 -1 36 9 40 7 3 11 12 8 19 -3 8 2 17 10 20 9 4
16 15 16 26 0 11 4 22 9 25 5 3 11 23 14 43 8 63 16 87 32 95 8 5 15 18 15 29
0 11 5 17 10 14 6 -3 10 1 10 11 0 9 9 32 21 51 14 23 19 42 15 59 -6 23 -4
25 15 19 19 -6 21 -4 15 18 -3 14 -2 29 4 32 5 3 10 15 10 25 0 10 7 23 16 28
11 6 13 11 5 16 -15 10 -14 26 3 26 9 0 19 29 30 88 9 48 19 98 22 112 3 14 6
35 5 48 -1 31 26 82 43 82 8 0 17 6 20 13 3 6 3 0 0 -15 -7 -33 11 -38 20 -5
9 33 8 37 -11 37 -28 0 -1 18 32 22 20 2 33 11 40 26 5 12 13 22 17 22 5 0 8
9 8 19 0 11 4 22 9 25 5 3 12 21 15 40 4 20 13 48 21 63 8 15 15 38 15 50 0
15 5 21 14 17 11 -4 13 0 9 15 -4 14 -1 21 10 21 18 0 27 21 20 49 -4 15 -1
21 10 21 10 0 14 7 10 23 -4 18 -3 19 6 7 9 -13 11 -12 11 4 0 11 10 30 22 43
20 22 20 23 3 17 -17 -7 -17 -5 4 24 12 18 27 30 32 27 9 -6 13 8 10 33 -1 8
5 19 15 26 9 7 18 26 20 42 1 16 8 30 13 32 6 2 11 15 11 29 0 17 4 24 14 20
9 -4 16 4 21 21 3 15 8 35 11 45 3 9 1 17 -5 17 -6 0 -11 -7 -11 -16 0 -13 -3
-14 -14 -5 -19 16 2 61 28 61 15 0 17 5 12 26 -6 23 -4 26 13 21 13 -3 19 -1
15 5 -6 9 13 56 27 68 13 11 29 50 30 72 0 13 3 18 6 11 10 -26 93 80 93 119
0 9 6 23 14 31 8 8 16 36 18 62 2 36 8 51 23 59 29 16 35 27 35 64 0 17 4 32
9 32 5 0 11 14 13 30 3 17 0 30 -6 30 -5 0 5 14 22 31 18 17 32 36 32 41 0 5
9 22 21 36 13 17 16 28 9 30 -7 3 0 16 16 33 25 26 26 29 8 29 -17 1 -17 2 -2
10 20 12 43 76 39 107 -2 17 2 21 13 17 19 -7 19 -8 6 36 -9 30 -7 37 15 60
22 23 24 31 15 54 -7 19 -7 25 0 21 14 -9 40 13 34 29 -6 16 18 63 42 82 14
11 15 17 7 20 -18 8 -16 24 1 24 9 0 16 12 18 33 2 17 9 33 16 33 6 1 19 2 27
3 24 2 17 21 -7 21 -22 0 -21 1 7 25 17 13 36 24 43 25 6 0 12 3 12 8 0 4 10
12 23 17 13 6 21 17 19 28 -2 9 1 17 7 17 5 0 12 8 14 18 4 16 5 16 6 0 1 -22
29 -24 37 -3 7 17 34 21 34 5 0 -5 7 -10 16 -10 10 0 14 6 10 15 -3 9 0 15 9
15 9 0 24 6 35 13 17 10 22 9 30 -3 9 -13 10 -13 10 0 0 9 11 16 25 18 72 8
255 -6 255 -19 0 -11 50 -1 65 12 5 5 17 9 27 9 9 0 21 8 27 17 8 15 11 15 26
3 12 -10 18 -11 24 -2 4 6 22 9 43 7 23 -3 38 -1 41 8 4 10 73 12 328 11 347
-1 342 0 424 -54 17 -11 42 -26 58 -32 15 -7 27 -18 27 -25 0 -7 6 -13 14 -13
20 0 104 -88 124 -130 9 -19 18 -37 21 -40 8 -7 24 -36 74 -133 49 -95 59
-120 82 -202 9 -33 22 -70 27 -82 6 -12 8 -28 5 -37 -3 -8 3 -38 13 -66 10
-28 19 -59 19 -68 0 -9 9 -61 20 -116 11 -54 23 -162 27 -240 9 -183 9 -188 0
-276 -14 -143 -14 -170 -5 -175 5 -4 9 -14 9 -23 0 -20 57 -134 71 -143 5 -3
11 -15 14 -27 2 -11 9 -30 15 -41 6 -11 11 -42 12 -68 1 -27 4 -52 7 -58 3 -5
7 -17 9 -25 9 -42 14 -67 16 -86 1 -11 5 -25 9 -31 4 -5 7 -25 8 -44 1 -19 5
-47 10 -64 11 -39 21 -94 23 -121 0 -11 6 -27 13 -35 6 -8 17 -26 23 -39 5
-14 22 -45 35 -69 14 -24 25 -50 25 -58 0 -7 4 -13 8 -13 4 0 18 -19 30 -42
12 -24 31 -56 42 -73 22 -34 40 -72 40 -86 0 -5 7 -9 16 -9 8 0 12 -4 9 -10
-3 -5 -1 -10 4 -10 6 0 10 -3 9 -7 -2 -13 14 -63 21 -63 3 0 7 -13 8 -28 1
-15 7 -41 14 -57 7 -17 13 -34 14 -40 0 -5 3 -15 7 -20 3 -6 9 -27 13 -48 5
-26 4 -37 -5 -37 -9 0 -9 -4 -2 -12 16 -22 24 -321 12 -463 -7 -71 -13 -182
-15 -245 -3 -102 -8 -154 -31 -306 -3 -26 -17 -54 -35 -73 -30 -33 -37 -47
-18 -35 8 5 8 1 0 -14 -6 -12 -16 -24 -21 -27 -6 -4 -8 -16 -4 -27 3 -11 0
-24 -8 -31 -8 -7 -22 -38 -32 -69 -9 -32 -21 -58 -27 -58 -5 0 -9 -5 -9 -10 0
-6 -9 -20 -19 -32 -11 -11 -17 -27 -14 -35 7 -19 -18 -36 -30 -20 -4 7 -5 -1
-1 -16 5 -21 2 -31 -11 -41 -11 -8 -16 -20 -12 -29 3 -9 0 -18 -9 -21 -8 -3
-14 -14 -14 -25 0 -11 -7 -26 -15 -35 -8 -8 -19 -26 -25 -40 -5 -14 -16 -26
-25 -26 -9 0 -15 -9 -15 -21 0 -12 -7 -27 -15 -33 -8 -6 -17 -22 -20 -35 -2
-14 -9 -29 -15 -35 -5 -5 -10 -18 -10 -27 0 -9 -7 -19 -15 -23 -11 -4 -14 -13
-9 -30 4 -17 -1 -31 -16 -46 -18 -18 -21 -30 -17 -61 4 -34 2 -39 -14 -39 -10
0 -19 -5 -19 -10 0 -16 31 -24 40 -10 5 8 9 9 14 1 4 -6 4 -17 -1 -23 -4 -7
-6 -21 -4 -32 1 -10 -2 -15 -7 -12 -6 4 -13 2 -17 -4 -9 -15 -25 -12 -25 6 0
8 -5 12 -11 9 -6 -4 -8 -13 -5 -20 2 -7 -4 -23 -15 -36 -10 -12 -19 -27 -19
-34 0 -6 -8 -20 -18 -31 -10 -10 -25 -34 -32 -51 -8 -18 -20 -33 -26 -33 -6 0
-11 -6 -12 -12 -4 -47 -11 -73 -21 -76 -6 -2 -11 -10 -11 -18 0 -7 -22 -57
-50 -111 -27 -54 -50 -108 -50 -121 0 -13 -4 -21 -10 -17 -7 4 -9 -2 -5 -17 7
-26 -16 -55 -35 -43 -6 3 -10 -3 -10 -15 0 -14 -5 -20 -13 -17 -7 3 -19 -4
-25 -14 -7 -10 -19 -19 -26 -19 -8 0 -16 -10 -18 -22 -2 -13 -9 -22 -16 -21
-6 2 -13 -4 -13 -12 -3 -28 -4 -33 -12 -41 -4 -4 -4 -22 -1 -40 4 -25 0 -43
-16 -69 -20 -33 -20 -35 -3 -35 17 -1 17 -1 0 -14 -17 -13 -17 -20 -6 -76 6
-34 18 -68 26 -76 8 -8 12 -21 9 -29 -3 -8 -1 -17 3 -20 22 -13 59 -163 60
-238 1 -43 7 -87 14 -99 9 -16 9 -22 0 -25 -9 -3 -6 -13 9 -33 14 -20 18 -34
13 -47 -9 -20 -19 -286 -16 -437 1 -71 6 -102 16 -113 8 -8 16 -22 16 -31 10
-130 10 -133 37 -166 12 -16 22 -35 22 -42 0 -14 4 -23 34 -81 9 -17 16 -36
16 -43 0 -6 9 -29 20 -52 30 -62 54 -251 53 -410 0 -76 3 -138 7 -138 4 0 10
-24 14 -53 4 -28 9 -65 11 -82 3 -16 6 -72 8 -123 3 -51 7 -95 11 -99 3 -3 6
-16 6 -29 0 -23 36 -188 47 -214 4 -8 8 -46 9 -85 2 -38 8 -110 14 -160 16
-127 22 -427 8 -419 -6 4 -8 -1 -3 -15 4 -12 2 -27 -3 -34 -14 -18 -21 -67
-10 -73 5 -3 7 -13 4 -21 -4 -9 -1 -22 5 -29 9 -11 8 -14 -4 -14 -9 0 -21 -15
-28 -35 -7 -19 -17 -35 -21 -35 -4 0 -8 -15 -8 -34 0 -19 -4 -37 -9 -41 -6 -3
-23 -45 -38 -93 -15 -48 -31 -89 -35 -92 -4 -3 -8 -23 -9 -45 -2 -22 -9 -50
-17 -63 -8 -13 -16 -37 -17 -55 0 -18 -3 -39 -6 -47 -3 -13 72 -15 634 -18
l637 -2 0 8045 0 8045 -6619 0 -6619 0 -32 -87 c-225 -616 -425 -1251 -605
-1920 -94 -352 -94 -352 -128 -377 -25 -18 -42 -21 -125 -20 -84 1 -111 6
-200 37 -168 58 -369 188 -442 286 -45 60 -46 64 -25 135 8 28 37 144 65 258
59 246 110 436 220 808 71 241 265 852 277 873 2 4 -1445 7 -3216 7 l-3221 0
6 -62z m1334 -192 c20 -26 8 -61 -22 -64 -22 -3 -30 2 -40 23 -11 24 -10 29 7
41 24 18 39 18 55 0z m604 -1808 c24 -34 20 -50 -11 -46 -19 2 -29 10 -34 30
-11 44 19 54 45 16z m385 -617 c6 -10 7 -21 4 -25 -9 -8 -33 14 -33 30 0 20
18 17 29 -5z m891 -369 c0 -14 -11 -21 -26 -15 -21 8 -17 23 6 23 11 0 20 -4
20 -8z m-3888 -1207 c0 -5 -5 -11 -11 -13 -6 -2 -11 4 -11 13 0 9 5 15 11 13
6 -2 11 -8 11 -13z m768 -16 c0 -11 -4 -17 -10 -14 -5 3 -10 13 -10 21 0 8 5
14 10 14 6 0 10 -9 10 -21z m6227 -445 c1 -5 -2 -16 -7 -24 -12 -20 -35 2 -26
25 6 17 27 16 33 -1z m-1402 -45 c12 -19 -5 -23 -22 -6 -16 16 -16 17 -1 17 9
0 20 -5 23 -11z m-3954 -42 c-13 -13 -26 -3 -16 12 3 6 11 8 17 5 6 -4 6 -10
-1 -17z m2847 -74 c-3 -38 -24 -56 -34 -29 -9 24 4 66 22 66 11 0 14 -9 12
-37z m-68 11 c0 -8 -5 -12 -10 -9 -6 4 -8 11 -5 16 9 14 15 11 15 -7z m-150
-24 c0 -5 -2 -10 -4 -10 -3 0 -8 5 -11 10 -3 6 -1 10 4 10 6 0 11 -4 11 -10z
m-5375 -20 c3 -5 2 -10 -4 -10 -5 0 -13 5 -16 10 -3 6 -2 10 4 10 5 0 13 -4
16 -10z m5460 -10 c7 -11 -14 -54 -22 -46 -4 3 -8 17 -9 31 -3 25 18 35 31 15z
m35 -10 c0 -5 -5 -10 -11 -10 -5 0 -7 5 -4 10 3 6 8 10 11 10 2 0 4 -4 4 -10z
m-5627 -53 c10 -4 17 -17 17 -32 0 -30 -13 -32 -31 -5 -13 18 -18 19 -57 9
-47 -13 -47 -13 -56 19 -6 18 -4 22 16 22 13 0 29 10 37 22 l14 22 21 -25 c12
-14 30 -28 39 -32z m141 -88 c22 -26 49 -89 42 -96 -8 -9 -43 36 -71 90 -20
38 -21 46 -7 38 9 -5 25 -19 36 -32z m-172 -39 c13 -5 37 -21 53 -35 25 -21
28 -27 15 -36 -21 -14 -103 -2 -117 18 -7 9 -13 27 -13 40 0 25 22 30 62 13z
m1128 -82 c0 -17 -19 -7 -25 12 -4 12 -14 19 -23 18 -23 -4 -28 29 -5 34 12 3
24 -6 35 -27 9 -16 17 -33 18 -37z m9080 -198 c0 -5 -4 -10 -10 -10 -5 0 -10
5 -10 10 0 6 5 10 10 10 6 0 10 -4 10 -10z m-9200 -35 c0 -8 -4 -15 -10 -15
-5 0 -10 7 -10 15 0 8 5 15 10 15 6 0 10 -7 10 -15z m9328 -17 c2 -12 -2 -15
-17 -11 -12 3 -21 12 -21 20 0 20 34 12 38 -9z m-8674 -60 c5 -9 7 -20 4 -23
-10 -10 -48 14 -48 31 0 20 29 14 44 -8z m-1710 -112 c-3 -8 -12 -12 -20 -9
-21 8 -17 23 6 23 13 0 18 -5 14 -14z m10113 -222 c11 4 13 1 8 -14 -4 -12 -2
-20 6 -20 15 0 49 -39 49 -55 0 -7 7 -18 15 -25 12 -10 15 -10 15 4 0 19 16
21 23 4 4 -10 8 -10 15 1 7 9 12 10 16 2 4 -6 12 -9 17 -6 12 8 49 -4 49 -15
0 -6 -10 -6 -25 0 -22 8 -25 7 -23 -13 2 -19 8 -22 45 -22 24 0 43 -3 43 -8 0
-5 16 -7 36 -5 32 4 35 2 32 -17 -4 -18 -1 -21 19 -17 13 2 23 8 23 13 0 5 7
9 15 9 18 0 20 -17 3 -23 -10 -3 -10 -8 1 -21 14 -17 15 -17 23 4 8 23 28 19
28 -6 0 -9 6 -14 13 -11 6 2 24 -9 39 -26 21 -23 25 -34 18 -48 -14 -24 -13
-90 0 -69 8 13 10 13 10 -2 0 -9 6 -18 13 -21 8 -3 7 -9 -6 -19 -10 -7 -17
-20 -15 -28 2 -10 -4 -14 -19 -13 -19 2 -23 -2 -23 -26 0 -16 -4 -31 -8 -33
-12 -4 -24 -68 -13 -68 13 0 -10 -60 -33 -87 -18 -21 -21 -22 -42 -8 -31 20
-74 20 -74 -1 0 -9 -3 -14 -7 -12 -5 2 -21 10 -38 18 -37 18 -48 32 -32 43 8
6 6 7 -6 3 -10 -3 -28 -6 -39 -6 -14 0 -18 -5 -14 -15 4 -10 -1 -15 -15 -15
-12 0 -23 -8 -26 -20 -3 -11 -11 -20 -19 -20 -18 0 -29 -21 -15 -30 16 -9 -13
-40 -38 -40 -28 0 -31 10 -16 41 19 35 19 39 1 39 -8 0 -17 6 -19 13 -3 6 -6
-2 -6 -19 -1 -41 -19 -55 -57 -45 -26 7 -29 12 -30 49 -1 23 -3 45 -4 50 -1 4
-2 10 -1 15 0 4 -4 6 -11 5 -6 -2 -14 6 -16 17 -5 23 -39 55 -59 55 -7 0 -13
5 -13 10 0 13 13 13 27 -1 9 -9 11 -7 7 9 -6 20 -35 35 -82 40 -7 1 -10 7 -7
12 4 6 16 8 28 5 21 -5 21 -5 0 6 -13 7 -23 18 -23 26 0 16 17 17 23 1 2 -7 8
-9 13 -5 5 5 1 13 -8 18 -9 5 -25 17 -34 27 -16 16 -17 15 -11 -22 6 -35 5
-37 -8 -20 -8 11 -15 28 -15 39 -1 18 -2 17 -16 -5 l-15 -25 4 29 c3 16 0 38
-6 48 -9 14 -9 23 1 38 9 15 10 26 2 40 -5 10 -10 30 -10 43 0 14 -6 30 -13
36 -16 13 -41 -12 -71 -71 -15 -29 -25 -37 -52 -40 -42 -5 -50 1 -26 18 15 12
15 13 -9 14 -23 0 -25 -3 -21 -30 5 -35 -12 -41 -23 -7 -6 19 -8 19 -12 5 -5
-20 -8 -20 -40 -12 -14 4 -23 14 -23 25 0 13 -7 19 -21 19 -16 0 -20 -5 -16
-20 3 -11 3 -20 1 -20 -9 0 -34 70 -34 96 0 16 -5 24 -12 21 -8 -2 -12 -16
-10 -35 2 -18 -1 -32 -7 -32 -6 0 -11 5 -11 11 0 5 -5 7 -10 4 -15 -9 -8 31
12 75 9 19 21 51 27 71 16 50 68 129 85 129 21 0 111 -28 204 -63 65 -25 82
-36 82 -52 0 -17 2 -17 10 -5 7 11 10 11 10 2 0 -7 4 -10 10 -7 5 3 33 -1 62
-10 28 -8 53 -15 54 -15 1 0 7 13 14 29 6 16 25 41 41 55 17 15 29 36 29 50 0
23 2 24 36 14 20 -5 42 -7 51 -4z m555 -29 c0 -5 -5 -11 -11 -13 -6 -2 -11 4
-11 13 0 9 5 15 11 13 6 -2 11 -8 11 -13z m-26 -310 c9 -8 13 -23 11 -33 -4
-14 -6 -14 -12 6 -4 12 -11 22 -16 22 -5 0 -9 5 -9 10 0 14 9 12 26 -5z m44
-60 c5 3 11 1 14 -4 3 -5 -3 -11 -14 -14 -16 -4 -20 0 -19 16 0 12 3 16 6 9 2
-6 9 -10 13 -7z m70 -5 c0 -5 -5 -10 -11 -10 -5 0 -7 5 -4 10 3 6 8 10 11 10
2 0 4 -4 4 -10z m-987 -30 c-3 -12 -8 -19 -11 -16 -5 6 5 36 12 36 2 0 2 -9
-1 -20z m927 0 c0 -5 -4 -10 -10 -10 -5 0 -10 5 -10 10 0 6 5 10 10 10 6 0 10
-4 10 -10z m-34 -26 c-4 -9 -9 -15 -11 -12 -3 3 -3 13 1 22 4 9 9 15 11 12 3
-3 3 -13 -1 -22z m134 -18 c0 -3 -4 -8 -10 -11 -5 -3 -10 -1 -10 4 0 6 5 11
10 11 6 0 10 -2 10 -4z m-47 -69 c4 3 7 1 7 -5 0 -14 -36 -16 -44 -3 -9 13 6
22 19 11 7 -5 15 -7 18 -3z m-873 -11 c0 -9 -7 -12 -20 -9 -11 3 -17 9 -14 14
8 14 34 10 34 -5z m891 -49 c-13 -13 -15 1 -4 30 7 17 8 17 11 -1 2 -10 -1
-23 -7 -29z m194 -39 c4 -4 2 -15 -5 -25 -10 -17 -11 -16 -5 3 4 18 1 21 -25
21 -27 0 -29 -2 -15 -17 19 -21 19 -30 1 -30 -13 0 -28 44 -19 54 6 6 61 1 68
-6z m-961 -13 c-4 -8 -10 -15 -15 -15 -5 0 -9 7 -9 15 0 8 7 15 15 15 9 0 12
-6 9 -15z m2536 -15 c0 -5 -4 -10 -10 -10 -5 0 -10 5 -10 10 0 6 5 10 10 10 6
0 10 -4 10 -10z m-1560 -39 c-6 -12 -16 -21 -22 -21 -6 0 -4 8 5 18 10 10 17
25 18 33 0 9 2 10 5 2 3 -7 0 -21 -6 -32z m101 16 c-10 -9 -11 -8 -5 6 3 10 9
15 12 12 3 -3 0 -11 -7 -18z m-3483 -29 c2 -9 -5 -33 -14 -55 l-17 -38 -9 30
c-6 20 -6 40 1 58 12 30 34 32 39 5z m3452 -18 c6 -11 7 -20 2 -20 -6 0 -12 9
-15 20 -3 11 -3 20 -1 20 2 0 8 -9 14 -20z m-1090 -89 c0 -5 -6 -14 -14 -20
-16 -13 -32 2 -21 19 8 12 35 13 35 1z m1620 -43 c0 -16 -3 -19 -11 -11 -6 6
-8 16 -5 22 11 17 16 13 16 -11z m-44 -155 c-2 -21 -7 -45 -10 -53 -28 -78
-27 -77 -37 -53 -5 15 -3 32 6 50 8 15 15 36 15 46 0 9 4 17 10 17 5 0 7 7 4
15 -4 8 -1 15 5 15 8 0 10 -13 7 -37z m1814 -47 c0 -11 -19 -15 -25 -6 -3 5 1
10 9 10 9 0 16 -2 16 -4z m-2764 -33 c-10 -10 -19 5 -10 18 6 11 8 11 12 0 2
-7 1 -15 -2 -18z m2570 -486 c8 3 14 2 14 -1 0 -4 -11 -11 -24 -16 -20 -7 -24
-15 -22 -37 2 -15 -1 -34 -6 -40 -7 -9 -5 -15 7 -19 9 -4 20 -2 24 3 3 6 20
14 37 17 23 5 33 3 37 -8 8 -19 -11 -32 -25 -18 -26 26 -76 -17 -73 -62 2 -18
-1 -39 -5 -46 -6 -9 -1 -25 12 -43 14 -20 17 -32 10 -39 -17 -17 -35 1 -20 20
11 13 9 15 -17 9 -16 -3 -24 -4 -17 -1 6 3 12 14 12 24 0 20 -23 43 -33 33
-11 -10 -8 25 3 47 6 11 15 29 20 40 8 15 7 20 -2 20 -7 1 -3 9 10 20 13 11
18 21 12 25 -5 3 -10 15 -10 26 0 27 22 61 33 50 5 -5 16 -7 23 -4z m1164
-149 c-37 -56 -117 -230 -135 -293 -28 -100 -29 -112 -14 -97 20 19 36 14 41
-13 4 -17 1 -25 -8 -25 -16 0 -17 -9 -5 -28 4 -8 15 -12 22 -10 8 2 17 -1 19
-7 3 -5 -4 -11 -16 -13 -13 -2 -24 5 -31 19 -6 16 -12 19 -17 11 -4 -7 -2 -12
3 -12 6 0 11 -7 11 -15 0 -13 -3 -13 -20 -3 -16 10 -19 20 -14 41 3 15 2 27
-3 27 -13 0 -47 -156 -38 -171 5 -7 4 -10 -2 -6 -10 6 -42 -89 -46 -134 -1
-10 -5 -19 -9 -19 -10 0 -11 -6 7 103 21 128 79 340 115 412 16 33 41 93 56
133 19 49 39 83 61 103 44 38 50 37 23 -3z m-1125 -11 c0 -39 -20 -38 -22 1
-1 21 3 32 10 29 7 -2 12 -16 12 -30z m-25 -66 c14 -27 13 -31 -10 -31 -15 0
-20 7 -20 25 0 30 15 33 30 6z m137 -38 c-9 -9 -19 -14 -23 -11 -10 10 6 28
24 28 15 0 15 -1 -1 -17z m-248 -64 c-20 -12 -30 0 -23 29 11 45 17 48 27 13
6 -25 5 -36 -4 -42z m51 -24 c0 -8 -4 -15 -10 -15 -5 0 -10 7 -10 15 0 8 5 15
10 15 6 0 10 -7 10 -15z m10 -77 c0 -12 -10 -10 -24 5 -7 7 -10 19 -8 26 4 11
8 10 18 -4 8 -10 14 -22 14 -27z m1070 -264 c0 -12 -34 -64 -42 -64 -11 0 -10
2 8 38 13 28 34 43 34 26z m2118 -741 c54 -53 66 -99 36 -141 -17 -25 -34 -29
-34 -8 0 8 -9 18 -20 21 -11 3 -20 12 -20 20 0 7 -6 15 -14 18 -22 9 -69 95
-62 113 10 26 79 12 114 -23z m-11620 -36 c3 -14 -1 -18 -20 -15 -12 2 -24 11
-26 21 -3 14 1 18 20 15 12 -2 24 -11 26 -21z m42 -758 c0 -5 -4 -9 -10 -9 -5
0 -10 7 -10 16 0 8 5 12 10 9 6 -3 10 -10 10 -16z m720 -599 c0 -5 -7 -10 -15
-10 -8 0 -15 5 -15 10 0 6 7 10 15 10 8 0 15 -4 15 -10z m9769 -499 c-17 -34
-34 -60 -36 -58 -4 5 25 74 44 104 30 45 25 14 -8 -46z m6441 -111 c0 -5 -4
-10 -10 -10 -5 0 -10 5 -10 10 0 6 5 10 10 10 6 0 10 -4 10 -10z m-6535 -70
c-9 -18 -19 -30 -21 -27 -3 3 2 19 11 37 9 18 19 30 21 27 3 -3 -2 -19 -11
-37z m-5415 -308 c0 -15 -2 -15 -10 -2 -13 20 -13 33 0 25 6 -3 10 -14 10 -23z
m8618 -1244 c15 5 15 -3 2 -29 -13 -24 -40 -25 -40 -1 0 9 -3 28 -6 42 l-6 25
19 -21 c10 -11 24 -19 31 -16z m2 22 c0 -5 -4 -10 -10 -10 -5 0 -10 5 -10 10
0 6 5 10 10 10 6 0 10 -4 10 -10z m-13045 -51 c122 -62 171 -94 203 -128 17
-19 32 -36 32 -37 0 -1 -15 2 -32 6 -44 10 -118 43 -118 52 0 5 -10 8 -23 8
-13 0 -28 5 -33 10 -6 6 -31 21 -55 34 -43 24 -56 43 -45 72 7 18 2 19 71 -17z
m2082 -115 c-3 -3 -12 -4 -19 -1 -8 3 -5 6 6 6 11 1 17 -2 13 -5z m-1680 -115
c14 -14 52 -36 75 -45 10 -3 20 -15 24 -26 4 -13 12 -18 24 -15 11 3 21 0 23
-6 1 -5 13 -11 25 -12 12 -1 28 -8 35 -16 6 -9 32 -24 57 -34 103 -42 139 -61
140 -72 0 -7 6 -10 14 -7 9 3 17 -3 21 -15 4 -12 12 -18 21 -14 8 3 23 -4 33
-16 10 -11 21 -17 25 -14 4 4 10 3 14 -2 8 -12 71 -35 95 -35 9 0 17 -4 17
-10 0 -5 6 -10 14 -10 19 0 27 -26 16 -52 -5 -13 -9 -17 -9 -10 -1 6 -8 12
-16 12 -23 0 -66 31 -59 42 4 6 -1 8 -14 4 -12 -4 -26 0 -36 10 -10 9 -20 14
-23 10 -3 -3 -38 12 -77 33 -39 21 -87 47 -106 57 -19 11 -37 21 -40 24 -3 3
-16 11 -30 18 -14 7 -34 18 -46 25 -11 7 -37 18 -57 26 -20 8 -37 19 -37 23 0
5 -4 7 -9 3 -5 -3 -25 5 -43 17 -37 26 -118 102 -118 112 0 10 35 7 47 -5z
m12613 -70 c0 -11 -4 -18 -10 -14 -5 3 -7 12 -3 20 7 21 13 19 13 -6z m-20
-86 c-11 -17 -11 -17 -6 0 3 10 6 24 7 30 0 9 2 9 5 0 3 -7 0 -20 -6 -30z
m-18 -156 c-3 -12 -12 -27 -20 -33 -8 -6 -12 -16 -8 -22 4 -7 3 -12 -3 -12
-23 0 -23 66 0 110 l23 44 7 -33 c4 -18 4 -42 1 -54z m-11782 -102 c7 -8 23
-15 36 -15 13 0 24 -4 24 -9 0 -9 59 -35 74 -32 13 3 106 -42 106 -51 0 -4 6
-8 14 -8 8 0 16 -7 20 -15 3 -8 12 -15 21 -15 8 0 15 -5 15 -11 0 -6 19 -29
43 -51 42 -40 42 -40 12 -33 -16 3 -37 12 -45 20 -8 7 -33 20 -55 30 -22 9
-47 21 -55 25 -27 16 -134 67 -197 95 -61 27 -102 59 -90 71 4 4 13 2 21 -5
11 -9 15 -8 20 4 7 19 20 19 36 0z m-95 -5 c3 -5 1 -10 -4 -10 -6 0 -11 5 -11
10 0 6 2 10 4 10 3 0 8 -4 11 -10z m11832 -22 c-3 -7 -5 -2 -5 12 0 14 2 19 5
13 2 -7 2 -19 0 -25z m-5937 -128 c0 -5 -4 -10 -10 -10 -5 0 -10 5 -10 10 0 6
5 10 10 10 6 0 10 -4 10 -10z m5834 -55 c-10 -16 -12 -25 -5 -25 16 0 5 -52
-14 -66 -8 -6 -15 -16 -15 -23 0 -6 -9 -11 -20 -11 -29 0 -21 60 16 110 33 44
66 57 38 15z m-10964 -135 c11 -7 12 -12 3 -21 -13 -13 -33 -4 -33 17 0 16 9
18 30 4z m30 -40 c0 -5 -2 -10 -4 -10 -3 0 -8 5 -11 10 -3 6 -1 10 4 10 6 0
11 -4 11 -10z m105 -50 c3 -5 1 -10 -4 -10 -6 0 -11 5 -11 10 0 6 2 10 4 10 3
0 8 -4 11 -10z m10870 0 c3 -5 -1 -10 -10 -10 -9 0 -13 5 -10 10 3 6 8 10 10
10 2 0 7 -4 10 -10z m-10743 -42 c15 -15 35 -22 67 -24 57 -2 101 -19 101 -39
0 -8 6 -15 13 -15 7 0 18 -9 25 -20 7 -12 18 -17 27 -14 9 4 23 -3 34 -15 16
-19 21 -20 28 -7 4 8 12 15 16 16 10 2 76 -46 102 -74 18 -20 129 -63 149 -58
4 2 13 -1 20 -6 6 -5 29 -13 51 -16 22 -4 58 -16 80 -26 56 -26 146 -60 157
-60 5 0 40 -16 78 -34 39 -19 70 -33 70 -30 0 3 6 2 12 -2 7 -5 26 -9 43 -10
64 -5 160 -27 168 -40 4 -7 22 -16 40 -19 17 -4 37 -12 44 -17 7 -5 16 -7 21
-4 5 3 17 -3 27 -14 13 -15 31 -20 67 -20 26 0 48 -4 48 -9 0 -8 66 -26 83
-23 4 1 18 -3 30 -10 12 -7 26 -11 31 -10 4 2 13 -2 20 -7 6 -5 31 -14 56 -21
25 -7 47 -15 50 -19 3 -3 21 -12 39 -18 28 -10 37 -10 43 0 6 9 11 8 19 -5 5
-10 17 -18 25 -18 16 0 231 -68 249 -78 6 -4 19 -8 31 -9 11 -2 38 -12 59 -23
22 -11 45 -20 51 -20 7 0 25 -5 41 -12 15 -6 33 -12 38 -12 26 -3 132 -41 146
-52 12 -11 18 -11 28 -1 10 9 14 8 22 -5 6 -10 19 -18 30 -18 10 0 27 -4 37
-9 25 -12 85 -33 100 -34 6 0 12 -4 12 -9 0 -4 7 -8 15 -8 8 0 15 6 15 14 0 9
8 12 25 8 14 -2 22 -8 19 -13 -8 -13 22 -22 51 -15 15 4 25 14 25 25 0 32 11
30 47 -5 30 -30 34 -32 28 -12 -4 13 -15 41 -25 63 -10 22 -20 66 -22 98 -3
53 4 73 15 45 3 -7 6 1 6 17 l1 30 26 -42 c16 -27 32 -43 45 -43 16 0 17 3 7
19 -7 11 -16 17 -21 14 -5 -3 -6 8 -2 25 6 29 -5 83 -26 124 -5 10 -9 32 -9
50 1 31 1 32 15 14 8 -11 15 -29 15 -40 0 -19 13 -68 32 -116 6 -14 12 -43 15
-64 2 -22 9 -49 15 -60 8 -15 8 -21 -1 -24 -15 -5 -14 -23 1 -20 6 2 16 -10
22 -27 6 -16 13 -32 16 -35 4 -3 11 -21 16 -40 6 -20 19 -39 32 -45 12 -5 22
-15 22 -21 0 -12 28 -29 43 -26 4 1 7 -6 7 -15 1 -16 2 -16 16 2 11 14 18 16
21 8 3 -7 11 -13 19 -13 8 0 14 -4 14 -10 0 -5 10 -10 23 -10 12 0 38 -6 58
-13 20 -7 59 -12 88 -12 36 0 50 -4 47 -12 -3 -7 -1 -15 4 -18 6 -4 10 -1 10
4 0 15 33 14 48 -1 10 -10 15 -10 22 2 7 12 13 12 37 0 15 -8 31 -16 35 -18 4
-1 5 4 2 12 -3 9 -1 16 5 16 6 0 11 -4 11 -10 0 -5 6 -10 14 -10 8 0 16 -7 18
-16 2 -12 16 -18 43 -20 57 -4 131 -12 200 -23 33 -5 64 -7 68 -4 4 3 13 1 20
-4 7 -5 26 -8 42 -8 17 1 35 -1 40 -5 6 -4 25 -8 43 -8 19 0 43 -7 55 -14 16
-10 38 -11 82 -6 81 10 76 10 110 4 17 -2 67 -5 113 -5 66 -1 82 -4 82 -16 0
-12 9 -15 35 -12 21 3 39 -1 46 -9 6 -8 29 -14 51 -14 22 0 48 -5 59 -11 15
-7 24 -7 34 1 16 13 54 -3 56 -23 0 -9 2 -9 6 1 5 14 33 17 33 3 0 -16 50 -5
64 14 12 17 13 17 19 -4 3 -11 13 -21 22 -21 15 0 52 -16 95 -42 8 -5 23 -11
32 -14 9 -3 19 -11 21 -17 2 -7 24 -12 48 -12 24 0 47 -4 51 -10 5 -7 8 -7 8
0 0 6 17 9 41 7 34 -4 41 -1 46 17 3 11 9 19 13 16 5 -3 11 -1 15 4 8 14 40 6
97 -24 27 -14 73 -28 102 -31 51 -4 54 -3 49 16 -4 15 -1 20 16 20 15 0 21 -6
21 -21 0 -11 5 -17 10 -14 6 3 15 3 22 -1 20 -13 128 -15 128 -3 0 7 10 9 24
5 14 -3 28 -2 31 4 3 5 28 7 58 4 82 -10 156 -10 149 0 -3 5 5 7 16 4 12 -4
24 -2 27 2 3 5 25 3 49 -4 41 -12 46 -12 64 6 20 20 20 20 41 -1 16 -16 26
-19 39 -12 9 5 39 5 67 1 28 -4 55 -5 60 -1 22 14 83 15 230 7 55 -4 109 -6
120 -6 136 4 169 7 172 17 3 8 15 10 32 7 16 -3 31 -1 35 4 6 10 104 7 154 -4
17 -3 22 -1 16 7 -5 9 -2 10 10 6 10 -4 19 -1 22 8 8 19 22 19 77 0 71 -24
126 -28 153 -10 13 8 24 22 24 29 0 16 53 31 70 21 6 -4 9 -14 6 -22 -5 -11
-2 -13 10 -9 8 3 21 6 27 7 7 0 3 5 -8 10 -14 7 -9 8 20 3 50 -7 51 -8 28 -31
-29 -29 -137 -50 -348 -68 -82 -6 -162 -17 -230 -30 -38 -8 -144 -16 -235 -20
-321 -11 -453 -16 -459 -17 -3 -1 -26 4 -50 11 -32 9 -69 10 -135 4 -145 -13
-617 -7 -796 11 -116 12 -167 18 -180 23 -8 3 -33 7 -55 8 -40 3 -109 9 -235
20 -130 12 -333 36 -340 40 -10 6 -308 37 -345 36 -16 -1 -43 5 -60 13 -66 31
-83 36 -160 47 -44 6 -84 14 -90 18 -5 4 -44 13 -85 20 -41 7 -124 24 -185 38
-60 13 -130 26 -155 29 -58 5 -129 19 -210 39 -36 9 -90 20 -120 25 -30 4 -74
15 -96 23 -26 10 -45 12 -51 6 -6 -6 -20 -4 -38 5 -16 8 -32 13 -37 10 -4 -3
-20 3 -36 14 -29 21 -75 37 -135 47 -20 3 -70 20 -110 37 -62 26 -144 54 -262
88 -16 5 -68 22 -115 38 -115 40 -218 70 -260 78 -56 10 -207 62 -275 94 -32
15 -255 89 -255 85 0 -5 -149 48 -195 70 -43 19 -112 44 -172 60 -28 8 -67 23
-87 35 -20 11 -48 20 -62 20 -26 0 -204 78 -266 117 -21 12 -44 23 -51 23 -7
0 -17 4 -22 9 -6 6 -23 11 -38 13 -16 3 -33 11 -38 19 -5 8 -9 10 -9 6 0 -5
-16 0 -36 12 -19 12 -42 21 -50 21 -8 0 -14 4 -14 8 0 7 -50 32 -167 83 -29
12 -53 26 -53 30 0 5 -7 6 -15 3 -8 -4 -15 -1 -15 5 0 6 -9 11 -19 11 -11 0
-23 5 -26 10 -3 6 -22 10 -41 10 -24 0 -43 8 -59 24 -13 13 -37 27 -52 31 -33
8 -85 65 -59 65 9 0 26 -10 38 -22z m9924 -537 c-8 -12 -46 -21 -46 -11 0 9
18 18 38 19 7 1 11 -3 8 -8z m-81 -43 c2 -7 0 -29 -4 -48 -5 -19 -9 -27 -10
-18 -1 14 -4 15 -23 5 -38 -20 -113 -74 -128 -92 -7 -9 -43 -34 -79 -56 -116
-70 -183 -120 -230 -173 -51 -56 -191 -117 -301 -131 -64 -9 -113 -32 -154
-74 -15 -17 -54 -39 -85 -49 -31 -11 -65 -23 -76 -28 -19 -7 -18 -5 3 18 12
13 22 33 22 44 0 18 51 58 76 59 6 0 22 5 35 11 48 23 80 34 96 34 9 0 24 6
32 13 26 22 181 79 200 74 33 -8 84 28 95 68 10 32 17 39 58 53 26 10 56 24
66 33 10 8 24 18 32 22 8 4 22 11 30 16 8 6 27 12 41 15 15 3 53 31 85 61 33
31 77 72 98 93 34 32 82 59 109 61 4 1 10 -5 12 -11z m-6821 -78 l7 -25 -15
25 c-17 28 -21 50 -7 35 5 -6 12 -21 15 -35z m-1934 -69 c0 -6 -4 -13 -10 -16
-5 -3 -10 1 -10 9 0 9 5 16 10 16 6 0 10 -4 10 -9z m8710 -21 c22 -22 27 -88
10 -121 -12 -21 -55 -26 -66 -7 -12 18 -8 102 5 126 14 27 25 28 51 2z m-8513
-63 c8 -9 -20 -9 -69 -1 -21 4 -38 10 -38 14 0 8 97 -4 107 -13z m4511 -355
c2 -7 -3 -12 -12 -12 -9 0 -16 7 -16 16 0 17 22 14 28 -4z m-1757 -65 c-13
-13 -26 -3 -16 12 3 6 11 8 17 5 6 -4 6 -10 -1 -17z m136 -13 c-3 -3 -12 -4
-19 -1 -8 3 -5 6 6 6 11 1 17 -2 13 -5z m4114 -106 c3 -4 21 -3 39 2 19 6 53
10 75 10 34 0 37 -2 25 -14 -25 -23 -114 -47 -168 -45 -42 2 -57 -2 -77 -21
-21 -20 -37 -23 -126 -26 -56 -3 -129 -11 -163 -18 -51 -12 -64 -12 -86 -1
-32 17 -100 81 -100 93 0 6 14 7 38 1 51 -12 139 -11 147 1 4 6 13 7 23 2 33
-17 175 4 243 35 l64 30 30 -21 c17 -12 32 -24 36 -28z m510 29 c-13 -13 -26
-3 -16 12 3 6 11 8 17 5 6 -4 6 -10 -1 -17z m-2058 -2 c-4 -15 -36 -12 -41 3
-3 9 3 13 19 10 13 -1 23 -7 22 -13z m-3983 -25 c0 -5 -4 -10 -10 -10 -5 0
-10 5 -10 10 0 6 5 10 10 10 6 0 10 -4 10 -10z m6999 -517 c-7 -10 -15 -20
-16 -22 -2 -2 -3 5 -3 17 0 14 6 22 16 22 14 0 15 -3 3 -17z m-8679 -121 c0
-10 -6 -27 -14 -38 -21 -28 -40 -7 -27 29 12 30 41 37 41 9z m-289 -95 c-10
-9 -11 -8 -5 6 3 10 9 15 12 12 3 -3 0 -11 -7 -18z m-101 -27 c0 -5 -2 -10 -4
-10 -3 0 -8 5 -11 10 -3 6 -1 10 4 10 6 0 11 -4 11 -10z m4310 -5 c0 -8 -4
-15 -9 -15 -5 0 -14 7 -21 15 -10 13 -9 15 9 15 12 0 21 -6 21 -15z m150 -55
c0 -5 -4 -10 -10 -10 -5 0 -10 5 -10 10 0 6 5 10 10 10 6 0 10 -4 10 -10z
m-2106 -75 c12 -18 13 -25 4 -25 -23 0 -41 18 -35 34 8 21 12 20 31 -9z m261
-75 c3 -5 -3 -10 -14 -10 -12 0 -21 5 -21 10 0 6 6 10 14 10 8 0 18 -4 21 -10z
m4745 -11 c0 -6 -4 -7 -10 -4 -5 3 -10 11 -10 16 0 6 5 7 10 4 6 -3 10 -11 10
-16z m-372 -66 c5 -18 -23 -16 -39 3 -11 14 -10 15 11 12 13 -1 25 -9 28 -15z
m-4081 -15 c-3 -8 -6 -5 -6 6 -1 11 2 17 5 13 3 -3 4 -12 1 -19z"/>
<path d="M24640 10190 c0 -5 7 -10 15 -10 8 0 15 5 15 10 0 6 -7 10 -15 10 -8
0 -15 -4 -15 -10z"/>
<path d="M24310 10100 c-12 -7 -12 -10 -1 -10 7 0 11 -6 8 -15 -4 -8 -2 -17 2
-20 9 -5 21 17 21 41 0 16 -9 18 -30 4z"/>
<path d="M24520 9789 c0 -5 5 -7 10 -4 6 3 10 8 10 11 0 2 -4 4 -10 4 -5 0
-10 -5 -10 -11z"/>
<path d="M24495 9740 c4 -6 11 -8 16 -5 14 9 11 15 -7 15 -8 0 -12 -5 -9 -10z"/>
<path d="M30755 7202 c-8 -20 1 -29 35 -34 32 -5 54 10 42 28 -11 18 -70 23
-77 6z"/>
<path d="M35831 4574 c0 -11 3 -14 6 -6 3 7 2 16 -1 19 -3 4 -6 -2 -5 -13z"/>
<path d="M2880 3268 c0 -9 -6 -19 -12 -21 -10 -4 -10 -6 0 -6 14 -1 28 26 18
36 -3 4 -6 -1 -6 -9z"/>
<path d="M2810 3260 c0 -5 5 -10 10 -10 6 0 10 5 10 10 0 6 -4 10 -10 10 -5 0
-10 -4 -10 -10z"/>
<path d="M5325 3250 c3 -5 8 -10 11 -10 2 0 4 5 4 10 0 6 -5 10 -11 10 -5 0
-7 -4 -4 -10z"/>
<path d="M2977 3224 c-8 -8 1 -24 14 -24 5 0 9 7 9 15 0 15 -12 20 -23 9z"/>
<path d="M2825 3210 c3 -5 8 -10 11 -10 2 0 4 5 4 10 0 6 -5 10 -11 10 -5 0
-7 -4 -4 -10z"/>
<path d="M4510 3210 c0 -5 5 -10 10 -10 6 0 10 5 10 10 0 6 -4 10 -10 10 -5 0
-10 -4 -10 -10z"/>
<path d="M3520 3169 c0 -5 5 -7 10 -4 6 3 10 8 10 11 0 2 -4 4 -10 4 -5 0 -10
-5 -10 -11z"/>
<path d="M4336 3162 c-2 -4 -1 -14 5 -22 7 -12 9 -10 9 8 0 23 -5 28 -14 14z"/>
<path d="M4035 3140 c3 -5 8 -10 11 -10 2 0 4 5 4 10 0 6 -5 10 -11 10 -5 0
-7 -4 -4 -10z"/>
<path d="M5920 3139 c0 -5 5 -7 10 -4 6 3 10 8 10 11 0 2 -4 4 -10 4 -5 0 -10
-5 -10 -11z"/>
<path d="M7122 3070 c0 -14 2 -19 5 -12 2 6 2 18 0 25 -3 6 -5 1 -5 -13z"/>
<path d="M6635 3060 c-3 -5 -1 -10 4 -10 6 0 11 5 11 10 0 6 -2 10 -4 10 -3 0
-8 -4 -11 -10z"/>
<path d="M6860 3040 c0 -5 5 -10 10 -10 6 0 10 5 10 10 0 6 -4 10 -10 10 -5 0
-10 -4 -10 -10z"/>
<path d="M8275 2691 c-3 -5 -1 -12 5 -16 5 -3 10 1 10 9 0 18 -6 21 -15 7z"/>
<path d="M2950 2609 c0 -5 -10 -9 -22 -7 -21 3 -23 -1 -23 -42 -1 -25 4 -64
11 -87 6 -23 10 -44 7 -46 -2 -3 0 -15 6 -28 5 -13 17 -44 26 -69 10 -25 26
-64 36 -87 11 -24 19 -47 19 -51 0 -5 11 -19 25 -32 14 -13 25 -29 25 -35 0
-24 39 -46 91 -51 30 -3 64 -10 76 -16 12 -6 33 -8 47 -6 16 3 27 0 30 -9 3
-8 10 -12 15 -8 5 3 12 1 16 -5 4 -6 11 -8 16 -5 5 4 9 1 9 -6 0 -8 5 -8 16 2
14 11 18 11 28 -3 11 -15 13 -15 22 -1 9 14 13 13 38 -10 25 -23 66 -31 81
-15 11 10 110 -5 124 -20 13 -12 16 -12 26 2 14 19 78 18 70 -1 -2 -8 4 -13
16 -13 17 0 19 4 13 22 -6 20 -5 21 9 9 23 -18 75 -20 82 -3 3 9 11 11 23 7 9
-4 35 -9 57 -11 22 -2 59 -5 83 -7 30 -3 42 0 42 9 0 8 5 14 11 14 6 0 8 -7 5
-15 -5 -13 0 -15 27 -10 17 4 52 2 77 -4 28 -6 46 -7 48 -1 2 6 8 10 13 10 4
0 6 -7 2 -17 -5 -13 -2 -15 17 -10 13 3 30 1 37 -5 9 -7 17 -7 28 2 12 10 17
7 26 -14 12 -25 12 -26 26 -6 19 27 53 26 53 0 0 -11 5 -20 10 -20 6 0 10 5
10 10 0 6 4 10 10 10 5 0 9 -5 7 -12 -3 -18 92 -32 120 -17 21 11 25 10 40
-10 12 -18 17 -20 24 -10 10 18 79 19 79 2 0 -22 30 -2 31 21 1 16 2 17 6 4 6
-25 83 -23 83 2 0 21 31 50 54 50 9 0 15 -3 13 -7 -3 -5 -1 -17 4 -28 7 -17 8
-17 8 8 1 20 6 27 22 27 28 0 19 24 -10 28 -22 3 -23 7 -16 58 7 59 -3 68 -41
39 -26 -20 -34 -19 -34 5 0 13 -7 20 -18 20 -10 0 -28 11 -40 25 -12 14 -27
25 -33 25 -6 0 -9 7 -5 15 3 9 0 15 -9 15 -8 0 -15 -6 -15 -12 0 -10 -3 -9 -9
1 -5 7 -13 11 -19 7 -5 -3 -12 4 -15 16 -5 16 -9 19 -19 11 -31 -26 -88 -11
-88 23 0 14 -25 25 -35 16 -4 -4 -11 -8 -16 -8 -5 -1 -12 -3 -16 -4 -22 -6
-69 4 -79 17 -7 11 -31 17 -72 19 -35 2 -72 10 -84 18 -20 14 -24 14 -40 -1
-16 -14 -18 -14 -13 -1 8 19 -44 42 -80 36 -13 -3 -22 -1 -19 3 3 5 -13 7 -35
4 -32 -4 -41 -2 -41 10 0 9 -6 12 -16 8 -13 -5 -15 -2 -10 14 5 17 2 20 -24
21 -30 1 -41 -12 -17 -21 6 -2 9 -7 6 -11 -7 -7 -102 26 -123 43 -9 8 -16 9
-16 3 0 -18 -50 -21 -60 -3 -7 12 -9 12 -10 2 0 -11 -3 -11 -16 0 -9 7 -23 14
-32 15 -8 2 -18 7 -21 12 -13 19 -91 38 -91 22 0 -5 12 -10 26 -10 16 0 24 -5
21 -12 -4 -13 -38 -12 -47 1 -3 4 -14 11 -25 15 -13 5 -15 10 -7 13 6 3 12 9
12 14 0 14 -27 11 -33 -4 -7 -19 -86 -15 -101 5 -13 18 -62 36 -51 19 5 -8 -2
-10 -22 -5 -15 4 -29 11 -31 16 -2 4 -12 8 -22 8 -10 0 -20 7 -24 15 -3 8 -10
15 -16 15 -5 0 -10 -7 -10 -15 0 -8 -7 -15 -15 -15 -9 0 -12 6 -8 16 5 14 2
16 -20 10 -14 -3 -29 -2 -32 4 -3 5 -17 10 -30 10 -12 0 -25 7 -29 15 -3 8
-13 15 -22 15 -16 0 -16 -2 1 -20 17 -19 17 -20 1 -20 -10 0 -20 9 -23 20 -6
22 -19 26 -26 8 -2 -7 -2 -3 0 10 3 21 -12 32 -19 13 -1 -5 -16 -13 -33 -17
l-30 -7 25 21 c14 11 22 23 18 27 -4 4 -15 0 -24 -10 -12 -11 -19 -13 -24 -5
-4 6 -14 8 -22 5 -9 -4 -19 -2 -23 4 -8 14 -35 14 -35 0z m339 -124 c0 -5 -4
-3 -9 5 -5 8 -9 22 -9 30 0 16 17 -16 18 -35z m1661 -405 c0 -5 -4 -10 -10
-10 -5 0 -10 5 -10 10 0 6 5 10 10 10 6 0 10 -4 10 -10z m-393 -156 c-3 -3
-12 -4 -19 -1 -8 3 -5 6 6 6 11 1 17 -2 13 -5z"/>
<path d="M3508 2483 c7 -3 16 -2 19 1 4 3 -2 6 -13 5 -11 0 -14 -3 -6 -6z"/>
<path d="M9466 2453 c-11 -11 -6 -23 9 -23 8 0 15 4 15 9 0 13 -16 22 -24 14z"/>
<path d="M9288 2433 c7 -3 16 -2 19 1 4 3 -2 6 -13 5 -11 0 -14 -3 -6 -6z"/>
<path d="M9841 2424 c0 -11 3 -14 6 -6 3 7 2 16 -1 19 -3 4 -6 -2 -5 -13z"/>
<path d="M9555 2410 c-3 -5 -2 -10 4 -10 5 0 13 5 16 10 3 6 2 10 -4 10 -5 0
-13 -4 -16 -10z"/>
<path d="M10145 2390 c-3 -5 -1 -10 4 -10 6 0 11 5 11 10 0 6 -2 10 -4 10 -3
0 -8 -4 -11 -10z"/>
<path d="M10700 2271 c0 -9 24 -21 42 -21 6 0 6 6 -2 15 -14 16 -40 20 -40 6z"/>
<path d="M11267 2264 c-3 -3 -3 -13 0 -21 5 -12 7 -12 14 -1 15 23 4 40 -14
22z"/>
<path d="M10690 2235 c0 -8 5 -15 10 -15 6 0 10 7 10 15 0 8 -4 15 -10 15 -5
0 -10 -7 -10 -15z"/>
<path d="M11398 2243 c7 -3 16 -2 19 1 4 3 -2 6 -13 5 -11 0 -14 -3 -6 -6z"/>
<path d="M11565 2200 c-3 -5 -1 -10 4 -10 6 0 11 5 11 10 0 6 -2 10 -4 10 -3
0 -8 -4 -11 -10z"/>
<path d="M5041 2054 c0 -11 3 -14 6 -6 3 7 2 16 -1 19 -3 4 -6 -2 -5 -13z"/>
<path d="M4965 2050 c-11 -18 19 -50 47 -50 34 0 33 18 -2 42 -29 20 -36 22
-45 8z"/>
<path d="M5278 2013 c7 -3 16 -2 19 1 4 3 -2 6 -13 5 -11 0 -14 -3 -6 -6z"/>
<path d="M5036 1984 c-11 -7 -16 -17 -13 -21 4 -4 15 1 24 10 22 21 14 30 -11
11z"/>
<path d="M5293 1988 c-30 -8 -48 -38 -23 -38 6 0 10 -7 10 -15 0 -17 6 -18 35
-5 19 8 19 9 -3 9 -29 1 -24 25 6 29 22 3 29 17 15 25 -5 2 -23 0 -40 -5z"/>
<path d="M5171 1954 c0 -11 3 -14 6 -6 3 7 2 16 -1 19 -3 4 -6 -2 -5 -13z"/>
<path d="M5221 1936 c2 -2 15 -9 29 -16 23 -12 24 -12 11 3 -7 10 -20 17 -29
17 -8 0 -13 -2 -11 -4z"/>
<path d="M12500 1920 c0 -5 5 -10 10 -10 6 0 10 5 10 10 0 6 -4 10 -10 10 -5
0 -10 -4 -10 -10z"/>
<path d="M13136 1865 c-3 -8 -1 -15 4 -15 6 0 10 7 10 15 0 8 -2 15 -4 15 -2
0 -6 -7 -10 -15z"/>
<path d="M18930 1520 c0 -5 5 -10 10 -10 6 0 10 5 10 10 0 6 -4 10 -10 10 -5
0 -10 -4 -10 -10z"/>
<path d="M18960 1510 c0 -5 5 -10 10 -10 6 0 10 5 10 10 0 6 -4 10 -10 10 -5
0 -10 -4 -10 -10z"/>
<path d="M8500 1480 c0 -5 7 -10 16 -10 8 0 12 5 9 10 -3 6 -10 10 -16 10 -5
0 -9 -4 -9 -10z"/>
<path d="M8535 1450 c-4 -14 -1 -26 8 -33 8 -7 18 -19 21 -27 4 -9 5 -7 2 5
-2 11 -7 29 -12 39 -5 14 -4 17 6 11 8 -5 11 -3 8 5 -7 23 -26 22 -33 0z"/>
<path d="M8585 1450 c3 -5 10 -10 16 -10 5 0 9 5 9 10 0 6 -7 10 -16 10 -8 0
-12 -4 -9 -10z"/>
<path d="M8755 1452 c-9 -6 -11 -34 -6 -67 2 -14 31 44 31 61 0 15 -10 18 -25
6z"/>
<path d="M19040 1445 c0 -8 8 -11 20 -8 11 3 20 7 20 8 0 1 -9 5 -20 8 -12 3
-20 0 -20 -8z"/>
<path d="M8795 1440 c3 -5 8 -10 11 -10 2 0 4 5 4 10 0 6 -5 10 -11 10 -5 0
-7 -4 -4 -10z"/>
<path d="M8845 1430 c-3 -5 -1 -10 4 -10 6 0 11 5 11 10 0 6 -2 10 -4 10 -3 0
-8 -4 -11 -10z"/>
<path d="M8660 1420 c0 -5 4 -10 9 -10 6 0 13 5 16 10 3 6 -1 10 -9 10 -9 0
-16 -4 -16 -10z"/>
<path d="M8714 1414 c-4 -10 -16 -27 -28 -36 -11 -9 -17 -20 -12 -25 5 -4 11
-2 13 5 3 6 11 12 18 12 7 0 15 12 18 28 6 32 0 43 -9 16z"/>
<path d="M8893 1404 c-16 -12 -26 -13 -42 -5 -28 16 -61 14 -61 -3 0 -19 17
-29 25 -16 11 17 23 11 27 -12 2 -15 9 -22 21 -22 9 1 17 -3 17 -8 0 -7 15 -8
38 -4 46 7 55 1 41 -27 -6 -10 -7 -17 -1 -14 5 4 18 0 28 -8 11 -8 14 -14 7
-15 -21 0 -15 -20 6 -20 26 0 47 78 24 87 -8 3 -19 0 -23 -7 -6 -9 -9 -6 -12
11 -3 22 -7 24 -55 23 -29 -1 -53 3 -53 9 0 5 6 7 13 4 7 -2 18 6 24 19 13 27
7 29 -24 8z"/>
<path d="M9037 1403 c-4 -3 -7 -11 -7 -17 0 -6 5 -5 12 2 6 6 9 14 7 17 -3 3
-9 2 -12 -2z"/>
<path d="M8731 1356 c-10 -12 -4 -15 34 -18 29 -2 45 1 45 8 0 25 -61 32 -79
10z"/>
<path d="M9102 1348 c-7 -7 -12 -18 -12 -26 0 -10 -7 -12 -26 -8 -23 6 -25 5
-19 -16 9 -28 4 -24 38 -32 26 -6 40 9 15 16 -9 2 -5 11 10 28 23 24 23 24 28
3 11 -43 124 -40 124 3 0 8 -9 14 -19 14 -11 0 -22 4 -26 10 -3 5 -15 0 -26
-11 -21 -21 -39 -18 -39 7 0 9 -5 12 -11 8 -6 -3 -14 -2 -18 5 -5 8 -10 8 -19
-1z"/>
<path d="M8780 1320 c-13 -8 -12 -10 3 -10 9 0 17 5 17 10 0 12 -1 12 -20 0z"/>
<path d="M8813 1318 c2 -7 12 -13 22 -13 10 0 20 6 23 13 2 7 -6 12 -23 12
-17 0 -25 -5 -22 -12z"/>
<path d="M9294 1299 c-3 -6 -1 -16 5 -22 6 -6 11 -9 12 -6 0 2 2 12 4 22 4 19
-10 23 -21 6z"/>
<path d="M8871 1284 c0 -11 3 -14 6 -6 3 7 2 16 -1 19 -3 4 -6 -2 -5 -13z"/>
<path d="M9255 1266 c-11 -8 -17 -18 -13 -22 4 -4 14 -1 23 6 10 8 15 9 15 1
0 -14 47 -15 55 0 4 6 4 13 0 17 -4 4 -10 1 -12 -5 -6 -18 -30 -16 -40 2 -8
13 -11 13 -28 1z"/>
<path d="M9120 1266 c0 -9 30 -14 35 -6 4 6 -3 10 -14 10 -12 0 -21 -2 -21 -4z"/>
<path d="M14630 1161 c0 -5 8 -17 17 -27 16 -16 16 -16 -5 -10 -18 6 -22 3
-22 -13 0 -12 5 -21 10 -21 6 0 10 -5 10 -11 0 -5 -4 -8 -9 -5 -5 3 -11 -1
-15 -9 -4 -11 2 -15 22 -15 16 0 39 -10 52 -22 l23 -22 16 21 c9 11 23 23 31
26 8 3 -5 3 -30 0 -43 -6 -44 -5 -29 13 9 10 19 37 22 59 4 22 3 33 -1 25 -8
-17 -52 -25 -52 -10 0 5 -9 14 -20 20 -12 6 -20 7 -20 1z"/>
<path d="M10625 1140 c-3 -5 -1 -10 4 -10 6 0 11 5 11 10 0 6 -2 10 -4 10 -3
0 -8 -4 -11 -10z"/>
<path d="M10750 1141 c0 -6 5 -13 10 -16 6 -3 10 1 10 9 0 9 -4 16 -10 16 -5
0 -10 -4 -10 -9z"/>
<path d="M10690 1119 c7 -11 8 -28 4 -37 -6 -14 -8 -13 -13 7 -8 30 -31 40
-31 14 0 -14 -2 -15 -9 -5 -7 12 -12 12 -30 1 -24 -15 -29 -31 -7 -23 8 3 19
-4 26 -16 10 -18 8 -24 -6 -34 -22 -17 -10 -36 18 -28 18 4 20 2 16 -16 -4
-12 -2 -22 3 -22 16 0 20 25 9 55 -12 32 -3 49 12 21 8 -15 12 -16 19 -5 6 9
8 0 5 -26 -2 -22 -1 -32 1 -22 6 25 49 24 46 -1 -1 -10 6 -12 23 -8 19 5 24 2
24 -11 0 -14 9 -19 38 -21 21 -1 42 -10 50 -20 11 -14 14 -15 22 -2 8 12 10
12 16 -3 9 -24 24 -11 25 21 0 15 3 22 5 16 3 -7 14 -9 25 -7 16 4 20 1 17
-12 -2 -10 3 -20 10 -22 6 -3 12 0 12 6 0 20 17 12 25 -11 l8 -23 4 23 c4 20
9 23 31 17 15 -4 35 -14 44 -22 13 -12 21 -13 31 -5 10 9 17 8 25 0 9 -9 12
-8 12 4 0 22 18 32 33 20 7 -5 24 -12 40 -16 15 -3 27 -13 27 -22 0 -12 -7
-14 -35 -8 -24 4 -35 3 -35 -6 0 -7 7 -10 15 -6 9 3 20 -3 27 -14 16 -26 28
-25 28 0 0 11 5 20 10 20 6 0 10 -6 10 -14 0 -15 49 -51 58 -42 3 3 0 6 -6 6
-18 0 -14 27 4 34 25 10 34 7 34 -9 0 -20 17 -19 29 3 9 15 13 15 31 4 17 -10
25 -10 36 -1 11 9 14 8 14 -6 0 -10 3 -16 6 -12 14 14 -8 47 -32 47 -15 0 -24
6 -24 15 0 17 16 20 25 4 4 -6 14 -8 23 -4 9 3 14 3 10 0 -3 -4 8 -20 24 -36
40 -38 48 -29 16 18 -14 21 -31 47 -37 58 -5 11 -11 14 -11 8 0 -19 -18 -16
-42 7 -33 31 -56 26 -54 -10 3 -39 -13 -39 -20 0 -5 25 -13 31 -43 36 -50 9
-51 10 -41 44 5 18 5 30 -1 30 -5 0 -9 -7 -9 -16 0 -11 -6 -15 -20 -11 -10 3
-25 -1 -31 -9 -20 -24 -67 -1 -83 41 -7 19 -8 19 -17 3 -6 -10 -17 -18 -25
-18 -8 0 -13 3 -11 8 3 4 1 16 -4 27 -7 19 -8 19 -8 -2 -1 -21 -21 -34 -21
-14 0 10 -54 7 -82 -4 -10 -4 -24 1 -37 14 -20 20 -21 20 -31 1 -5 -10 -10
-25 -10 -33 0 -17 -50 -30 -64 -17 -14 14 4 31 27 25 19 -5 20 -5 5 5 -19 12
-25 40 -8 40 6 0 10 -7 10 -15 0 -8 5 -15 10 -15 6 0 10 4 10 9 0 6 -4 13 -10
16 -5 3 -10 16 -11 28 0 12 -3 16 -6 10 -6 -15 -33 -17 -33 -3 0 6 -4 10 -10
10 -15 0 -12 -21 6 -42 16 -16 16 -18 0 -24 -9 -3 -16 -14 -17 -23 0 -10 -2
-11 -6 -3 -2 6 -13 12 -23 12 -10 0 -21 6 -24 13 -5 10 -7 10 -12 0 -10 -22
-24 -14 -24 12 0 15 -6 25 -15 25 -8 0 -19 9 -25 20 -6 11 -15 20 -21 20 -6 0
-6 -8 1 -21z m274 -64 c3 -8 1 -15 -4 -15 -6 0 -10 7 -10 15 0 8 2 15 4 15 2
0 6 -7 10 -15z m76 -26 c0 -11 -4 -17 -10 -14 -5 3 -10 13 -10 21 0 8 5 14 10
14 6 0 10 -9 10 -21z m45 13 c13 -9 35 -49 35 -62 0 -5 -4 -10 -10 -10 -5 0
-10 5 -10 12 0 7 -12 25 -27 40 -18 18 -22 28 -12 28 8 0 19 -4 24 -8z m-175
-52 c0 -5 -4 -10 -9 -10 -6 0 -13 5 -16 10 -3 6 1 10 9 10 9 0 16 -4 16 -10z
m-70 -10 c0 -5 -7 -10 -15 -10 -8 0 -15 5 -15 10 0 6 7 10 15 10 8 0 15 -4 15
-10z m440 -5 c0 -2 -7 -5 -15 -9 -9 -3 -15 0 -15 9 0 9 6 12 15 9 8 -4 15 -7
15 -9z m-78 -27 c-7 -7 -12 -8 -12 -2 0 14 12 26 19 19 2 -3 -1 -11 -7 -17z
m-44 -6 c2 -7 -3 -12 -12 -12 -9 0 -16 7 -16 16 0 17 22 14 28 -4z m186 -18
c13 -5 14 -9 5 -20 -17 -21 -38 -17 -32 6 6 23 5 22 27 14z"/>
<path d="M10795 1118 c-4 -10 -4 -26 0 -35 8 -17 8 -17 12 0 3 9 3 25 0 35 -4
16 -4 16 -12 0z"/>
<path d="M11350 1010 c0 -5 7 -10 16 -10 8 0 12 5 9 10 -3 6 -10 10 -16 10 -5
0 -9 -4 -9 -10z"/>
<path d="M10781 954 c0 -11 3 -14 6 -6 3 7 2 16 -1 19 -3 4 -6 -2 -5 -13z"/>
<path d="M10736 951 c-4 -7 -5 -15 -2 -18 9 -9 19 4 14 18 -4 11 -6 11 -12 0z"/>
<path d="M12151 866 c-8 -10 -9 -16 -1 -21 5 -3 13 1 16 10 9 22 -1 29 -15 11z"/>
<path d="M12515 860 c-3 -5 -1 -10 4 -10 6 0 11 5 11 10 0 6 -2 10 -4 10 -3 0
-8 -4 -11 -10z"/>
<path d="M11960 835 c0 -8 5 -15 10 -15 6 0 10 7 10 15 0 8 -4 15 -10 15 -5 0
-10 -7 -10 -15z"/>
<path d="M12040 836 c0 -8 -6 -16 -12 -19 -7 -2 -9 -8 -5 -13 4 -5 12 -2 17 6
7 11 11 11 24 1 17 -14 21 -5 10 23 -8 20 -34 21 -34 2z"/>
<path d="M12790 840 c-8 -5 -33 -8 -56 -5 -22 3 -54 1 -71 -4 -17 -5 -36 -5
-44 0 -7 4 -19 3 -26 -2 -7 -6 -18 -7 -24 -3 -9 5 -10 2 -5 -12 6 -15 5 -17
-5 -6 -15 14 -43 16 -34 2 9 -15 -8 -12 -31 4 -13 10 -23 11 -31 4 -9 -7 -17
-7 -27 1 -11 9 -16 9 -21 0 -6 -8 -10 -8 -16 2 -6 10 -12 8 -26 -10 -18 -21
-53 -22 -53 0 0 5 -5 9 -11 9 -7 0 -4 -11 6 -26 14 -21 15 -31 6 -51 -14 -29
-14 -43 -1 -23 6 10 10 11 10 3 0 -7 5 -13 11 -13 6 0 9 6 6 14 -3 8 3 22 14
32 18 16 25 11 20 -18 -2 -13 17 -9 22 5 4 10 6 10 6 0 1 -7 6 -13 12 -13 5 0
9 13 7 30 -3 31 15 43 20 13 2 -10 6 -25 9 -33 3 -8 7 -22 7 -30 1 -8 13 -16
27 -18 17 -2 29 -11 32 -23 4 -16 11 -19 28 -14 15 5 19 4 15 -4 -4 -6 0 -19
10 -28 16 -16 16 -16 10 5 -5 13 -3 22 3 22 6 0 11 -5 11 -11 0 -6 8 -8 18 -5
13 5 22 -1 30 -19 13 -28 19 -29 56 -15 21 8 26 7 26 -6 0 -11 6 -13 20 -9 11
4 20 2 20 -4 0 -6 -5 -11 -11 -11 -5 0 -7 -5 -4 -10 4 -6 12 -4 22 5 10 11 25
14 46 10 18 -3 42 -7 55 -8 12 -1 22 -7 22 -14 0 -11 5 -11 21 -2 17 9 23 8
30 -2 7 -11 9 -10 9 3 0 15 3 15 31 1 16 -8 46 -15 65 -15 18 0 34 -5 34 -10
0 -6 7 -8 15 -4 9 3 15 0 15 -10 0 -10 5 -12 13 -7 21 13 78 11 84 -4 3 -7 13
-13 22 -13 9 0 22 -5 29 -12 9 -9 12 -9 12 1 0 7 6 11 13 8 6 -2 19 0 29 4 11
6 18 4 22 -7 5 -12 10 -13 19 -5 10 8 17 7 26 -2 9 -9 14 -9 20 2 7 11 13 9
30 -8 12 -12 26 -19 31 -16 6 3 21 -5 33 -19 27 -29 37 -25 38 13 0 26 0 26 9
4 13 -32 36 -28 43 7 5 23 11 28 24 24 11 -4 14 -3 7 3 -6 4 -16 18 -23 31
-10 19 -10 28 4 48 8 13 12 23 8 22 -4 -2 -9 0 -10 5 -7 18 -1 25 17 20 12 -3
20 0 20 7 0 7 8 19 17 26 10 7 15 16 10 20 -4 4 -12 3 -18 -3 -13 -13 -131 46
-125 62 2 6 -10 12 -27 13 -17 2 -37 8 -46 15 -12 10 -14 9 -8 -5 4 -12 2 -18
-8 -18 -8 0 -15 5 -15 11 0 8 -5 7 -15 -1 -12 -10 -19 -10 -27 -2 -9 9 -8 12
5 12 17 0 22 11 11 23 -7 7 -95 -39 -106 -56 -6 -9 -8 -9 -8 1 0 6 -4 12 -9
12 -5 0 -22 5 -38 12 -15 6 -32 10 -37 9 -4 -1 -14 6 -21 16 -13 17 -14 17
-20 1 -4 -10 -11 -18 -16 -18 -5 0 -9 8 -9 18 0 13 -2 14 -9 4 -7 -11 -9 -11
-14 2 -5 12 -14 14 -37 10 -32 -7 -44 11 -12 19 9 3 -5 3 -33 2 -27 -2 -44 -1
-37 2 15 6 6 23 -14 23 -8 0 -14 -8 -15 -17 0 -11 -3 -13 -6 -5 -2 6 -9 12
-14 12 -6 0 -7 -4 -4 -10 3 -5 1 -10 -5 -10 -6 0 -13 7 -16 15 -7 17 -94 22
-94 5 0 -5 -4 -10 -9 -10 -5 0 -7 9 -4 20 6 23 4 24 -17 10z m-280 -66 c0 -2
-7 -4 -15 -4 -8 0 -15 4 -15 10 0 5 7 7 15 4 8 -4 15 -8 15 -10z m-3 -50 c-3
-3 -12 -4 -19 -1 -8 3 -5 6 6 6 11 1 17 -2 13 -5z m991 -12 c6 -18 -15 -14
-22 4 -4 10 -1 14 6 12 6 -2 14 -10 16 -16z"/>
<path d="M12100 811 c0 -6 5 -13 11 -17 6 -3 9 -19 7 -35 -3 -16 -1 -29 3 -29
12 0 21 38 14 60 -8 26 2 25 25 -2 11 -13 17 -30 14 -40 -3 -9 0 -19 6 -23 6
-4 10 7 10 28 0 26 -6 39 -25 51 -27 18 -65 21 -65 7z"/>
<path d="M12218 813 c6 -2 18 -2 25 0 6 3 1 5 -13 5 -14 0 -19 -2 -12 -5z"/>
<path d="M12255 780 c-3 -5 -15 -10 -26 -10 -12 0 -19 -7 -19 -20 0 -25 9 -25
26 -2 12 16 13 16 14 0 0 -9 5 -20 10 -23 6 -4 9 8 8 29 -3 39 -4 41 -13 26z"/>
<path d="M13270 763 c0 -4 5 -15 10 -23 8 -13 10 -13 10 2 0 9 -4 20 -10 23
-5 3 -10 3 -10 -2z"/>
<path d="M12400 694 c0 -8 5 -12 10 -9 6 4 8 11 5 16 -9 14 -15 11 -15 -7z"/>
<path d="M3536 691 c-5 -7 -14 -10 -22 -7 -9 4 -14 -2 -14 -17 0 -13 -5 -28
-12 -35 -8 -8 -9 -15 -1 -23 6 -6 7 -24 4 -42 -8 -37 13 -173 30 -193 6 -7 8
-17 6 -21 -7 -11 21 -134 33 -148 5 -6 7 -21 3 -33 -3 -12 -1 -22 3 -22 5 0
26 -16 48 -35 39 -36 58 -44 111 -48 17 -1 38 -10 47 -21 15 -16 20 -17 34 -5
13 11 21 10 50 -6 27 -15 36 -16 49 -5 10 9 15 9 15 1 0 -7 9 -9 25 -5 14 3
25 2 25 -4 0 -5 9 -12 20 -15 11 -3 18 -2 15 3 -6 9 101 7 111 -2 11 -12 424
-9 424 2 0 5 6 10 14 10 8 0 16 6 19 14 8 20 49 16 55 -6 2 -9 10 -19 18 -22
8 -3 13 -2 11 2 -4 13 8 14 36 3 37 -14 1115 -15 1137 -1 12 8 12 10 1 10 -7
0 -24 11 -37 25 -13 14 -26 25 -30 25 -4 0 -15 10 -25 22 -16 17 -19 18 -19 5
0 -26 -16 -20 -41 14 -15 21 -27 29 -40 26 -10 -3 -30 3 -43 14 -13 10 -29 19
-34 19 -5 0 -15 7 -22 15 -7 8 -21 15 -31 15 -9 0 -24 7 -33 15 -8 8 -28 15
-45 15 -16 0 -33 5 -36 11 -4 6 -13 8 -21 5 -8 -3 -14 1 -14 11 0 14 -2 14
-20 -2 -18 -17 -20 -17 -20 -1 0 9 -10 20 -22 25 -29 11 -35 6 -18 -14 10 -12
10 -15 -3 -15 -8 0 -17 6 -20 14 -4 9 -21 13 -60 11 -44 -2 -54 0 -50 11 5 13
-7 18 -35 15 -7 -1 -11 4 -10 11 4 17 -52 14 -64 -4 -4 -7 -8 -8 -8 -2 0 5 6
16 13 23 10 11 7 12 -15 7 -16 -3 -28 -2 -28 3 0 5 -9 11 -20 14 -21 5 -28 -7
-10 -18 16 -10 12 -28 -5 -22 -8 4 -17 2 -20 -3 -11 -18 -27 -10 -20 9 4 13
-2 23 -20 35 -14 9 -25 12 -25 6 0 -5 -13 -10 -30 -10 -16 0 -30 5 -30 10 0 6
7 10 15 10 8 0 15 5 15 10 0 6 -7 10 -15 10 -8 0 -15 -5 -15 -11 0 -6 -7 -9
-15 -5 -8 3 -15 1 -15 -5 0 -6 -5 -7 -12 -2 -7 4 -24 9 -38 11 -14 1 -37 4
-52 6 -16 2 -35 4 -44 5 -11 1 -13 7 -9 22 6 19 3 18 -38 -10 -25 -17 -48 -27
-52 -22 -3 5 -1 12 5 16 5 3 10 11 10 17 0 6 -3 8 -7 5 -3 -4 -12 -2 -20 4
-10 9 -17 8 -29 -2 -13 -10 -17 -10 -24 0 -6 11 -9 11 -15 1 -6 -10 -11 -9
-21 4 -6 9 -21 18 -31 19 -15 1 -18 7 -15 25 4 22 3 23 -18 10 -18 -10 -24
-10 -27 0 -3 6 -9 12 -14 12 -6 0 -7 -4 -4 -10 3 -5 2 -10 -4 -10 -5 0 -13 5
-17 11 -4 7 -21 9 -45 5 -31 -5 -40 -3 -48 12 -7 13 -22 18 -55 19 -30 1 -55
9 -72 22 -21 17 -30 19 -41 9 -11 -9 -16 -9 -23 2 -12 20 -51 24 -44 5 4 -8 1
-15 -5 -15 -7 0 -14 7 -17 15 -5 12 -10 13 -19 5 -10 -8 -16 -7 -22 3 -15 25
-85 45 -136 40 -36 -4 -47 -2 -47 8 0 8 -5 21 -10 29 -9 13 -11 13 -20 0 -9
-13 -11 -13 -20 0 -7 10 -10 11 -10 2 0 -9 -6 -8 -25 4 -13 9 -40 16 -59 17
-24 1 -37 7 -44 21 -6 14 -11 16 -16 7z m1084 -331 c0 -5 -2 -10 -4 -10 -3 0
-8 5 -11 10 -3 6 -1 10 4 10 6 0 11 -4 11 -10z"/>
<path d="M13685 639 c6 -24 4 -30 -6 -24 -9 6 -11 3 -6 -9 5 -13 1 -19 -14
-23 -16 -4 -17 -8 -7 -14 20 -13 25 -11 31 11 7 26 27 26 27 0 0 -13 5 -18 15
-14 8 4 15 1 15 -5 0 -6 -4 -11 -10 -11 -5 0 -10 -10 -10 -23 0 -13 -4 -27 -9
-33 -12 -13 -24 -84 -14 -84 5 0 13 10 18 23 6 12 18 21 28 21 14 -2 15 1 7
12 -8 9 -9 18 -1 31 6 10 11 16 11 13 0 -3 3 -22 6 -43 4 -26 1 -46 -10 -62
-9 -14 -13 -25 -9 -25 5 0 14 9 21 20 15 24 32 26 32 4 0 -11 6 -15 19 -11 13
3 22 -1 24 -12 4 -13 6 -11 12 7 8 25 25 30 25 7 0 -8 9 -15 20 -15 13 0 20 7
20 20 0 13 7 20 18 20 21 0 44 -53 34 -78 -3 -9 9 -1 27 18 20 22 31 28 27 16
-5 -14 -2 -17 10 -12 9 4 23 1 30 -5 11 -9 14 -7 15 7 0 13 4 11 11 -9 9 -25
11 -26 23 -11 8 12 27 18 61 18 43 1 49 4 52 24 2 12 6 22 10 22 4 0 8 15 9
33 0 17 -1 26 -4 19 -6 -17 -33 4 -33 25 0 12 3 13 14 4 21 -18 27 1 14 45 -9
33 -12 36 -18 19 l-8 -20 -8 20 c-11 29 -35 49 -64 53 -13 2 -30 11 -37 20 -7
10 -13 13 -13 7 0 -5 -10 -11 -22 -11 -13 -1 -58 -4 -100 -8 -44 -3 -80 -1
-83 4 -3 5 -11 7 -18 4 -7 -2 -22 5 -34 16 -17 15 -27 18 -45 11 -20 -8 -21
-10 -5 -16 9 -4 17 -13 17 -21 0 -21 -13 -17 -34 11 -21 28 -41 34 -32 9 4
-10 1 -14 -6 -12 -7 3 -13 11 -13 19 0 14 -14 29 -28 29 -5 0 -6 -14 -2 -31z"/>
<path d="M14015 660 c3 -5 8 -10 11 -10 2 0 4 5 4 10 0 6 -5 10 -11 10 -5 0
-7 -4 -4 -10z"/>
<path d="M14130 630 c0 -5 5 -10 10 -10 6 0 10 5 10 10 0 6 -4 10 -10 10 -5 0
-10 -4 -10 -10z"/>
<path d="M17880 626 c0 -19 -36 -22 -43 -3 -4 7 -8 3 -12 -10 -6 -18 -11 -21
-26 -13 -14 8 -21 5 -33 -12 -10 -13 -16 -17 -16 -9 0 8 -3 11 -7 7 -5 -4 1
-14 11 -21 18 -14 18 -15 1 -41 -9 -15 -13 -29 -8 -33 16 -11 44 -61 34 -61
-5 0 -13 9 -16 20 -3 11 -11 20 -16 20 -13 0 -11 -17 2 -26 6 -3 9 -18 6 -31
-3 -19 4 -34 28 -59 18 -18 36 -30 39 -26 4 3 10 2 14 -4 9 -15 91 -54 111
-54 9 0 29 -11 45 -25 16 -14 32 -23 35 -20 3 4 -1 10 -9 15 -20 13 -8 12 24
0 14 -5 26 -17 26 -25 0 -15 2 -15 15 -1 9 8 14 20 13 27 -2 6 3 14 11 17 9 3
12 0 9 -9 -10 -27 10 -61 34 -57 13 1 24 -1 26 -5 5 -17 1 -27 -13 -27 -8 0
-15 -4 -15 -9 0 -14 39 -9 44 5 3 7 15 18 27 24 20 11 21 10 15 -15 -4 -15 -3
-24 2 -21 5 3 7 -6 4 -19 -6 -32 3 -32 33 1 23 25 25 26 25 6 0 -11 -7 -28
-16 -37 -16 -15 -16 -16 1 -13 10 2 20 -3 22 -9 3 -7 0 -13 -6 -13 -6 0 -11
-5 -11 -10 0 -7 7 -7 21 1 15 8 19 8 15 0 -4 -6 0 -14 9 -17 9 -4 14 -13 11
-20 -4 -12 47 -14 311 -14 306 0 316 1 300 18 -10 10 -17 24 -17 30 0 6 -5 14
-11 18 -8 5 -10 -3 -7 -25 6 -43 -8 -39 -32 9 -22 43 -20 63 7 53 11 -4 14 -2
11 8 -3 8 -13 15 -24 15 -10 1 -23 2 -29 3 -5 1 -4 6 3 13 7 7 12 20 12 30 0
12 5 15 16 11 10 -3 22 0 28 8 6 8 20 21 30 29 18 14 18 13 12 -8 -6 -18 -4
-22 12 -22 11 0 23 -6 25 -12 9 -23 7 30 -2 54 -11 30 -11 44 0 41 13 -4 11
25 -2 33 -7 4 -19 -3 -29 -16 -23 -31 -46 -21 -71 32 -14 30 -19 35 -14 16 3
-16 1 -28 -5 -28 -15 0 -12 -29 4 -46 8 -8 25 -14 38 -14 l23 -1 -24 -20 -24
-20 -25 27 c-23 24 -24 32 -19 90 5 51 4 62 -7 58 -8 -3 -17 0 -22 7 -5 8 -3
10 7 5 8 -4 5 0 -5 8 -11 9 -25 16 -30 15 -6 0 -5 -3 2 -6 6 -2 12 -12 12 -20
0 -14 -3 -14 -20 2 -11 10 -17 21 -14 26 7 12 -35 31 -58 26 -12 -3 -21 0 -25
10 -4 10 -13 13 -29 9 -14 -4 -24 -2 -24 5 0 6 -11 8 -29 4 -22 -5 -30 -2 -35
12 -7 17 -8 17 -23 -2 -11 -14 -17 -16 -20 -7 -3 7 -12 20 -21 29 -16 15 -17
15 -21 -2 -2 -13 -5 -15 -11 -5 -4 7 -15 10 -25 7 -9 -4 -13 -12 -9 -19 5 -8
2 -9 -10 -5 -10 4 -20 7 -22 7 -3 0 -2 5 1 10 3 6 1 10 -5 10 -6 0 -20 9 -32
20 -19 18 -23 18 -38 5 -9 -8 -20 -12 -23 -9 -8 9 -69 16 -126 15 -30 0 -48
-6 -53 -16 -14 -24 -24 -18 -49 29 -13 25 -27 42 -31 40 -14 -9 -48 7 -48 22
0 17 -17 19 -23 2 -4 -10 -7 -10 -18 0 -18 17 -29 15 -30 -5 0 -15 -2 -15 -9
2 -5 11 -9 16 -9 11 -1 -5 -8 -3 -16 4 -12 10 -15 10 -15 -4z m475 -106 c3 -5
-1 -10 -9 -10 -9 0 -16 5 -16 10 0 6 4 10 9 10 6 0 13 -4 16 -10z m455 -190
c0 -13 -11 -13 -30 0 -12 8 -11 10 8 10 12 0 22 -4 22 -10z m0 -80 c0 -5 -5
-10 -11 -10 -5 0 -7 5 -4 10 3 6 8 10 11 10 2 0 4 -4 4 -10z m50 -39 c0 -6 -4
-13 -10 -16 -5 -3 -10 1 -10 9 0 9 5 16 10 16 6 0 10 -4 10 -9z m-573 -37 c-3
-3 -12 -4 -19 -1 -8 3 -5 6 6 6 11 1 17 -2 13 -5z m498 -14 c-3 -5 -10 -10
-16 -10 -5 0 -9 5 -9 10 0 6 7 10 16 10 8 0 12 -4 9 -10z m78 -79 c9 -16 17
-35 16 -43 0 -7 -4 -3 -9 10 -5 12 -16 25 -25 28 -8 4 -15 12 -15 20 0 23 14
16 33 -15z"/>
<path d="M13600 540 c0 -5 5 -10 10 -10 6 0 10 5 10 10 0 6 -4 10 -10 10 -5 0
-10 -4 -10 -10z"/>
<path d="M13691 534 c0 -11 3 -14 6 -6 3 7 2 16 -1 19 -3 4 -6 -2 -5 -13z"/>
<path d="M13600 439 c0 -22 23 -25 39 -5 9 11 6 15 -14 18 -19 4 -25 1 -25
-13z"/>
<path d="M4735 400 c3 -5 8 -10 11 -10 2 0 4 5 4 10 0 6 -5 10 -11 10 -5 0 -7
-4 -4 -10z"/>
<path d="M23425 370 c-3 -5 -1 -10 4 -10 6 0 11 5 11 10 0 6 -2 10 -4 10 -3 0
-8 -4 -11 -10z"/>
<path d="M14140 336 c0 -9 5 -16 10 -16 6 0 10 4 10 9 0 6 -4 13 -10 16 -5 3
-10 -1 -10 -9z"/>
<path d="M18930 328 c0 -19 2 -20 10 -8 13 19 13 30 0 30 -5 0 -10 -10 -10
-22z"/>
<path d="M22800 330 c0 -5 5 -10 11 -10 5 0 7 5 4 10 -3 6 -8 10 -11 10 -2 0
-4 -4 -4 -10z"/>
<path d="M24820 190 c0 -5 7 -10 16 -10 8 0 12 5 9 10 -3 6 -10 10 -16 10 -5
0 -9 -4 -9 -10z"/>
<path d="M18200 130 c0 -5 5 -10 10 -10 6 0 10 5 10 10 0 6 -4 10 -10 10 -5 0
-10 -4 -10 -10z"/>
<path d="M5826 61 c-4 -5 3 -13 15 -16 12 -4 18 -12 15 -21 -6 -17 10 -29 17
-12 4 10 8 9 16 -2 10 -13 12 -13 21 0 15 22 12 40 -5 34 -8 -4 -15 -1 -15 6
0 7 -7 10 -16 6 -9 -4 -22 -2 -29 4 -9 7 -15 7 -19 1z"/>
<path d="M5940 10 c0 -5 9 -10 21 -10 11 0 17 4 14 10 -8 13 -35 13 -35 0z"/>
<path d="M18300 10 c0 -5 7 -10 16 -10 8 0 12 5 9 10 -3 6 -10 10 -16 10 -5 0
-9 -4 -9 -10z"/>
<path d="M19015 10 c-3 -5 1 -10 9 -10 9 0 16 5 16 10 0 6 -4 10 -9 10 -6 0
-13 -4 -16 -10z"/>
</g>
</svg>
