<svg width="1647" height="1593" xmlns="http://www.w3.org/2000/svg" xmlns:xlink="http://www.w3.org/1999/xlink" xml:space="preserve" overflow="hidden"><g transform="translate(-881 -508)"><path d="M895 1304.5C895 872.337 1257.43 522 1704.5 522 2151.57 522 2514 872.337 2514 1304.5 2514 1736.66 2151.57 2087 1704.5 2087 1257.43 2087 895 1736.66 895 1304.5Z" stroke="#000000" stroke-width="27.5" stroke-miterlimit="8" fill="none" fill-rule="evenodd"/><path d="M1704 522 1704 2086.92" stroke="#000000" stroke-width="27.5" stroke-miterlimit="8" fill="none" fill-rule="evenodd"/><path d="M0 0 1619.06 0.000360892" stroke="#000000" stroke-width="27.5" stroke-miterlimit="8" fill="none" fill-rule="evenodd" transform="matrix(-1 0 0 1 2514.06 1305)"/><g><g><g><path d="M271.772 303.75 132.553 303.75C115.079 303.75 100.912 317.916 100.912 335.391 100.912 352.865 115.079 367.031 132.553 367.031L271.772 367.031C289.246 367.031 303.412 352.865 303.412 335.391 303.412 317.916 289.246 303.75 271.772 303.75ZM140.991 348.047C134.001 348.047 128.334 342.381 128.334 335.391 128.334 328.401 134.001 322.734 140.991 322.734 147.981 322.734 153.647 328.401 153.647 335.391 153.647 342.381 147.981 348.047 140.991 348.047ZM202.162 348.047C195.172 348.047 189.506 342.381 189.506 335.391 189.506 328.401 195.172 322.734 202.162 322.734 209.153 322.734 214.819 328.401 214.819 335.391 214.819 342.381 209.153 348.047 202.162 348.047ZM263.334 348.047C256.344 348.047 250.678 342.381 250.678 335.391 250.678 328.401 256.344 322.734 263.334 322.734 270.324 322.734 275.991 328.401 275.991 335.391 275.991 342.381 270.324 348.047 263.334 348.047Z" transform="matrix(1.00247 0 0 1 1140 725)"/><path d="M231.314 118.125C231.314 121.62 228.481 124.453 224.986 124.453 221.491 124.453 218.658 121.62 218.658 118.125 218.658 114.63 221.491 111.797 224.986 111.797 228.481 111.797 231.314 114.63 231.314 118.125Z" transform="matrix(1.00247 0 0 1 1140 725)"/><path d="M238.823 75.9375 210.937 75.9375 210.937 56.7422C219.009 52.0821 221.774 41.7617 217.114 33.6905 212.454 25.6193 202.134 22.8539 194.062 27.5138 185.991 32.1737 183.226 42.4942 187.886 50.5655 189.367 53.1309 191.497 55.261 194.062 56.7422L194.062 75.9375 166.177 75.9375C155.958 75.9607 147.679 84.2392 147.656 94.4578L147.656 141.792C147.679 152.011 155.958 160.289 166.177 160.312L238.823 160.312C249.042 160.289 257.321 152.011 257.344 141.792L257.344 94.4578C257.321 84.2392 249.042 75.9607 238.823 75.9375ZM181.406 130.781C174.416 130.781 168.75 125.115 168.75 118.125 168.75 111.135 174.416 105.469 181.406 105.469 188.396 105.469 194.062 111.135 194.062 118.125 194.062 125.115 188.396 130.781 181.406 130.781ZM223.594 130.781C216.604 130.781 210.937 125.115 210.937 118.125 210.937 111.135 216.604 105.469 223.594 105.469 230.584 105.469 236.25 111.135 236.25 118.125 236.25 125.115 230.584 130.781 223.594 130.781Z" transform="matrix(1.00247 0 0 1 1140 725)"/><path d="M189.127 118.125C189.127 121.62 186.293 124.453 182.798 124.453 179.303 124.453 176.47 121.62 176.47 118.125 176.47 114.63 179.303 111.797 182.798 111.797 186.293 111.797 189.127 114.63 189.127 118.125Z" transform="matrix(1.00247 0 0 1 1140 725)"/><path d="M312.187 248.147 312.187 213.005C312.187 202.543 303.707 194.062 293.245 194.062L270 194.062 270 172.969 135 172.969 135 198.281 103.317 198.281C102.176 198.281 101.25 197.356 101.25 196.214L101.25 161.241C115.752 156.958 124.037 141.729 119.754 127.227 118.605 123.339 116.608 119.755 113.906 116.733L101.25 127.955C103.02 129.88 104.026 132.385 104.077 135 104.045 140.825 99.2971 145.521 93.4723 145.489 87.6475 145.457 82.9516 140.71 82.9832 134.885 82.9967 132.369 83.9092 129.941 85.5562 128.039L72.9 116.944C62.9568 128.367 64.1571 145.688 75.5806 155.631 78.165 157.881 81.1477 159.626 84.375 160.777L84.375 196.214C84.375 206.676 92.8555 215.156 103.317 215.156L135 215.156 135 291.094 270 291.094 270 210.937 293.245 210.937C294.387 210.937 295.312 211.863 295.312 213.005L295.312 248.147C280.903 252.808 273.001 268.268 277.662 282.678 278.829 286.284 280.73 289.609 283.247 292.444L295.903 281.222C294.157 279.308 293.194 276.809 293.203 274.219 293.208 268.394 297.934 263.676 303.759 263.681 309.584 263.686 314.302 268.412 314.297 274.236 314.295 276.791 313.365 279.258 311.681 281.18L324.337 292.275C334.319 280.916 333.204 263.617 321.845 253.635 319.035 251.165 315.748 249.297 312.187 248.147ZM253.125 232.031 241.397 232.031C240.989 232.104 240.601 232.262 240.258 232.495L227.348 245.7 217.519 222.412 199.167 260.381 186.3 210.937 176.386 232.031 156.094 232.031 156.094 223.594 171.028 223.594 188.578 186.258 201.572 235.955 218.067 202.205 230.217 230.977 234.436 226.758C236.288 224.883 238.766 223.757 241.397 223.594L253.125 223.594Z" transform="matrix(1.00247 0 0 1 1140 725)"/></g></g></g><g><g><g><path d="M2167.05 985.352C2165.71 985.792 2164.42 986.384 2163.21 987.116 2160.5 988.816 2158.18 991.078 2156.42 993.75 2160.54 996.141 2163.49 1000.13 2164.56 1004.78 2166.67 1000.24 2168.71 999.659 2168.71 991.677 2168.75 989.456 2168.17 987.267 2167.05 985.352Z"/><path d="M2163.41 979.378C2159.7 964.377 2143.88 954.972 2130.9 953.335 2121.69 952.058 2112.32 952.75 2103.4 955.364L2097.21 957.457C2081.31 929.18 2085.36 894.75 2082.57 880.845 2080.44 870.22 2063.22 838.145 2055.31 822.064 2052.93 817.122 2048.19 813.747 2042.74 813.127 2041.78 813.03 2040.82 812.955 2039.86 812.9 2037.97 812.752 2036.32 814.167 2036.17 816.06 2036.12 816.737 2036.27 817.415 2036.6 818.008L2051.84 845.212 2025.58 815.021C2024.8 814.112 2023.6 813.674 2022.41 813.866 2021.47 814.028 2020.54 814.206 2019.6 814.398 2015.89 815.205 2013.54 818.866 2014.34 822.577 2014.5 823.288 2014.77 823.97 2015.13 824.598L2023.88 839.616 2005.66 821.243C2004.63 820.193 2003.05 819.917 2001.72 820.555 2000.5 821.156 1999.29 821.789 1998.1 822.456 1994.76 824.296 1993.54 828.497 1995.38 831.84 1995.63 832.297 1995.93 832.723 1996.28 833.112L2006.53 844.563 1988.18 832.39C1986.88 831.518 1985.15 831.636 1983.98 832.679 1983.25 833.346 1982.53 834.027 1981.82 834.721 1977.76 838.731 1977.72 845.273 1981.73 849.334 1982.33 849.942 1983 850.473 1983.74 850.915L2001.91 861.915C2011.41 867.665 2019.29 875.755 2024.78 885.414L2034.75 902.928C2043.23 917.815 2054.66 930.812 2068.34 941.122L2084.01 952.94 2089.75 957.409C2090.71 958.161 2091.22 959.358 2091.09 960.575L2090.03 970.667 2111.53 974.012C2113.4 974.302 2114.69 976.058 2114.4 977.934 2114.39 978.015 2114.37 978.095 2114.35 978.175L2111.29 991.581 2120.68 993.362C2122.49 992.01 2124.69 991.293 2126.95 991.323L2148.09 991.667C2148.55 991.667 2149.01 991.725 2149.48 991.756 2151.94 987.452 2155.43 983.83 2159.64 981.22 2160.84 980.506 2162.1 979.89 2163.41 979.378Z"/><path d="M1914.41 937.891C1917.71 940.965 1921.81 943.05 1926.24 943.906L1942.11 947 1933.45 947.853C1931.56 948.036 1930.18 949.717 1930.36 951.606 1930.44 952.441 1930.83 953.217 1931.44 953.789L1933.09 955.322C1936.86 958.843 1941.55 961.232 1946.61 962.214L1955.86 964.009 1951.91 964.555C1950.03 964.803 1948.71 966.529 1948.95 968.411 1949.07 969.298 1949.53 970.105 1950.23 970.66 1961.52 979.854 1973.79 987.79 1986.8 994.328L2036.63 1019.35C2023.58 1036.49 2004.37 1047.87 1983.07 1051.09 1995.91 1066.78 2014.74 1076.36 2034.98 1077.5L2046.48 1060.44 2045.27 1077.31C2052.91 1076.68 2060.41 1074.85 2067.47 1071.87 2065.14 1063.33 2064.42 1054.44 2065.35 1045.64 2068.79 1044.16 2071.97 1042.68 2074.94 1041.17L2081.78 1051.44C2083.28 1053.67 2085.74 1055.06 2088.42 1055.2L2095.67 1066.08C2095.75 1066.19 2095.85 1066.27 2095.93 1066.37L2092.66 1070.15C2090.68 1072.2 2090.75 1075.47 2092.8 1077.44 2094.86 1079.41 2098.12 1079.35 2100.09 1077.29 2100.2 1077.18 2100.31 1077.06 2100.4 1076.94L2122.93 1051.2 2127.46 1051.2C2130.31 1051.2 2132.62 1048.89 2132.62 1046.04 2132.62 1043.2 2130.31 1040.89 2127.46 1040.89L2121.7 1040.89C2119.51 1040.89 2117.42 1041.84 2115.97 1043.49L2112.69 1047.24 2107.59 1039.6C2109.01 1036.85 2108.82 1033.54 2107.11 1030.96L2101.06 1021.88C2107 1015.07 2112.09 1007.57 2116.24 999.539L2106.5 997.689C2104.64 997.335 2103.41 995.535 2103.77 993.67 2103.78 993.629 2103.78 993.588 2103.79 993.547L2106.83 980.265 2082.39 976.463 2084.21 961.709 2055.88 940.331C2046.94 933.596 2039.47 925.103 2033.94 915.375L2018.78 888.745C2013.89 880.133 2006.87 872.915 1998.4 867.776L1936.85 830.424C1928.83 825.528 1919.51 823.212 1910.14 823.79 1908.05 823.889 1906.44 825.661 1906.54 827.747 1906.6 829.048 1907.33 830.226 1908.46 830.864L1936.94 847.313 1890.03 831.156C1889.06 830.821 1887.99 830.938 1887.11 831.476L1887.11 831.476C1884 833.392 1883.03 837.47 1884.95 840.584 1885.52 841.518 1886.32 842.294 1887.27 842.844L1912.88 857.625 1876.76 845.171C1875.28 844.66 1873.64 845.212 1872.77 846.515L1872.77 846.515C1869.9 850.832 1871.07 856.659 1875.39 859.531 1875.56 859.644 1875.73 859.751 1875.91 859.853L1899.16 873.224 1870.53 865.463C1868.67 864.973 1866.77 866.08 1866.29 867.933 1866.23 868.157 1866.19 868.384 1866.18 868.615 1866.14 869.059 1866.12 869.503 1866.1 869.945 1865.89 874.849 1868.64 879.402 1873.08 881.488L1895.69 892.072 1874.05 888.827C1872.18 888.531 1870.42 889.811 1870.12 891.687 1870.02 892.312 1870.1 892.952 1870.34 893.537 1870.63 894.224 1870.94 894.912 1871.26 895.599 1873.7 900.659 1878.12 904.488 1883.47 906.183L1903.43 912.625 1892.94 911.975C1891.04 911.865 1889.42 913.313 1889.31 915.208 1889.24 916.293 1889.7 917.344 1890.53 918.043L1892.87 919.999C1895.91 922.432 1899.5 924.09 1903.32 924.832L1925.2 929.077 1914.03 929.74C1912.14 929.853 1910.69 931.481 1910.81 933.376 1910.86 934.293 1911.28 935.15 1911.97 935.756ZM2102.93 1058.38 2097.02 1049.5C2097.68 1047.63 2097.66 1045.58 2096.98 1043.71 2097.38 1043.87 2097.79 1044 2098.21 1044.1L2105.65 1055.28Z"/></g></g></g><g><g><g><path d="M2171 865.755 2172.27 861.975 2169.39 859.095 2165.61 860.37C2164.63 859.816 2163.58 859.388 2162.49 859.095L2160.72 855.57 2156.7 855.57 2154.92 859.11C2153.82 859.406 2152.77 859.834 2151.78 860.385L2148 859.11 2145.12 861.99 2146.32 865.77C2145.74 866.747 2145.3 867.797 2145 868.89L2141.46 870.66 2141.46 874.62 2145 876.405C2145.29 877.495 2145.72 878.543 2146.27 879.525L2145 883.305 2148 886.185 2151.78 884.895C2152.76 885.454 2153.81 885.887 2154.9 886.185L2156.67 889.71 2160.69 889.71 2162.48 886.245C2163.55 885.954 2164.58 885.536 2165.55 885L2169.31 886.29 2172.2 883.395 2170.92 879.63C2171.49 878.641 2171.95 877.589 2172.28 876.495L2175.81 874.725 2175.81 870.66 2172.27 868.875C2171.98 867.784 2171.55 866.735 2171 865.755ZM2158.7 878.7C2155.38 878.7 2152.7 876.014 2152.7 872.7 2152.7 869.386 2155.38 866.7 2158.7 866.7 2161.99 866.748 2164.65 869.407 2164.7 872.7 2164.7 876.014 2162.01 878.7 2158.7 878.7Z"/><path d="M2171.58 919.185 2145.76 919.185C2143.38 919.326 2141.55 921.378 2141.69 923.768 2141.82 925.961 2143.57 927.711 2145.76 927.84L2171.58 927.84C2173.97 927.699 2175.79 925.648 2175.65 923.258 2175.52 921.064 2173.77 919.314 2171.58 919.185Z"/><path d="M2158.68 942.495C2163.58 942.487 2167.65 938.722 2168.04 933.84L2149.3 933.84C2149.7 938.725 2153.78 942.488 2158.68 942.495Z"/><path d="M2196.14 873.705 2196.14 872.415C2195.75 851.941 2179.11 835.507 2158.64 835.38L2158.64 835.38C2138.16 835.507 2121.52 851.941 2121.14 872.415L2121.14 873.705C2121.27 878.146 2122.15 882.532 2123.75 886.68 2125.26 890.594 2127.47 894.206 2130.26 897.345 2133.69 901.08 2137.44 908.355 2139.03 911.595 2139.52 912.574 2140.52 913.191 2141.61 913.185L2175.66 913.185C2176.75 913.191 2177.75 912.574 2178.24 911.595 2179.83 908.355 2183.58 901.095 2187.02 897.345 2189.8 894.206 2192.01 890.594 2193.52 886.68 2195.12 882.532 2196 878.146 2196.14 873.705ZM2187.5 873.57C2187.39 877.017 2186.71 880.423 2185.5 883.65 2184.36 886.557 2182.72 889.238 2180.64 891.57 2177.31 895.534 2174.46 899.873 2172.14 904.5L2145.14 904.5C2142.84 899.861 2140.01 895.507 2136.71 891.525 2134.63 889.193 2132.98 886.512 2131.84 883.605 2130.61 880.382 2129.91 876.976 2129.77 873.525L2129.77 872.445C2130.04 856.695 2142.84 844.041 2158.59 843.945L2158.59 843.945C2174.34 844.041 2187.14 856.695 2187.41 872.445Z"/><path d="M2158.97 829.5C2160.62 829.5 2161.97 828.157 2161.97 826.5L2161.97 816C2161.97 814.343 2160.62 813 2158.97 813 2157.31 813 2155.97 814.343 2155.97 816L2155.97 826.5C2155.97 828.157 2157.31 829.5 2158.97 829.5Z"/><path d="M2123.37 842.685C2124.54 843.848 2126.43 843.848 2127.6 842.685 2128.76 841.515 2128.76 839.625 2127.6 838.455L2120.18 831C2118.95 829.89 2117.05 829.987 2115.94 831.216 2114.9 832.361 2114.91 834.104 2115.95 835.245Z"/><path d="M2192.49 844.14C2193.29 844.141 2194.06 843.822 2194.62 843.255L2202.03 835.755C2203 834.409 2202.69 832.535 2201.34 831.568 2200.28 830.806 2198.85 830.819 2197.8 831.6L2190.3 839.1C2189.14 840.27 2189.14 842.16 2190.3 843.33 2190.89 843.885 2191.68 844.177 2192.49 844.14Z"/><path d="M2112.38 869.25 2101.88 869.25C2100.22 869.25 2098.88 870.593 2098.88 872.25 2098.88 873.907 2100.22 875.25 2101.88 875.25L2112.38 875.25C2114.03 875.25 2115.38 873.907 2115.38 872.25 2115.38 870.593 2114.03 869.25 2112.38 869.25Z"/><path d="M2123.37 901.71 2115.95 909.21C2114.69 910.288 2114.54 912.182 2115.62 913.44 2116.7 914.699 2118.59 914.845 2119.85 913.767 2119.97 913.667 2120.07 913.557 2120.18 913.44L2127.6 905.94C2128.68 904.682 2128.53 902.788 2127.27 901.71 2126.15 900.748 2124.49 900.748 2123.37 901.71Z"/><path d="M2194.62 901.14C2193.51 899.91 2191.61 899.814 2190.38 900.924 2189.15 902.034 2189.06 903.931 2190.17 905.161 2190.23 905.234 2190.3 905.304 2190.38 905.37L2197.88 912.87C2198.94 914.143 2200.83 914.316 2202.1 913.255 2203.37 912.195 2203.55 910.303 2202.49 909.03 2202.34 908.857 2202.18 908.701 2202 908.565Z"/><path d="M2215.5 869.145 2205 869.145C2203.34 869.145 2202 870.488 2202 872.145 2202 873.802 2203.34 875.145 2205 875.145L2215.5 875.145C2217.16 875.145 2218.5 873.802 2218.5 872.145 2218.5 870.488 2217.16 869.145 2215.5 869.145Z"/></g></g></g><g><g><g><path d="M1487.44 1651.31 1463.72 1610.06 1463.72 1608.34C1465.78 1551.28 1421.09 1503.5 1364.03 1501.44 1306.97 1499.38 1259.19 1543.72 1257.12 1600.78 1257.12 1603.19 1257.12 1605.94 1257.12 1608.34 1257.12 1641 1271.91 1671.59 1297.69 1691.53L1297.69 1778.5 1406.31 1778.5 1406.31 1737.25 1423.16 1737.25C1445.5 1737.25 1463.72 1719.03 1463.72 1696.69 1463.72 1696.34 1463.72 1696.34 1463.72 1696L1463.72 1675.38 1478.84 1675.38C1487.78 1674.34 1495.69 1664.03 1487.44 1651.31ZM1272.59 1573.97 1291.5 1573.97 1291.5 1560.22C1287.72 1557.47 1287.03 1551.97 1289.78 1548.19 1292.53 1544.41 1298.03 1543.72 1301.81 1546.47 1305.59 1549.22 1306.28 1554.72 1303.53 1558.5 1303.19 1559.19 1302.5 1559.88 1301.81 1560.22L1301.81 1573.97 1315.56 1573.97 1315.56 1598.03C1319.34 1600.78 1320.03 1606.28 1317.28 1610.06 1314.53 1613.84 1309.03 1614.53 1305.25 1611.78 1301.47 1609.03 1300.78 1603.53 1303.53 1599.75 1303.88 1599.06 1304.56 1598.38 1305.25 1598.03L1305.25 1584.28 1269.5 1584.28C1270.53 1580.84 1271.22 1577.41 1272.59 1573.97ZM1368.16 1632.06C1363.34 1632.06 1359.56 1628.28 1359.56 1623.47 1359.56 1623.13 1359.56 1622.44 1359.56 1622.09L1350.62 1613.16 1336.19 1627.59 1336.19 1653.03C1339.97 1655.78 1340.66 1661.28 1337.91 1665.06 1335.16 1668.84 1329.66 1669.53 1325.88 1666.78 1322.09 1664.03 1321.41 1658.53 1324.16 1654.75 1324.5 1654.06 1325.19 1653.38 1325.88 1653.03L1325.88 1649.59 1302.84 1649.59 1286.69 1630.69C1281.88 1631.03 1277.75 1627.59 1277.41 1622.78 1277.06 1617.97 1280.5 1613.84 1285.31 1613.5 1290.12 1613.16 1294.25 1616.59 1294.59 1621.41 1294.59 1622.09 1294.59 1623.13 1294.59 1623.81L1307.66 1639.28 1325.88 1639.28 1325.88 1623.47 1343.41 1605.94 1332.75 1594.94 1332.75 1532.72C1328.97 1529.97 1328.28 1524.47 1331.03 1520.69 1333.78 1516.91 1339.28 1516.22 1343.06 1518.97 1346.84 1521.72 1347.53 1527.22 1344.78 1531 1344.44 1531.69 1343.75 1532.38 1343.06 1532.72L1343.06 1543.03 1370.56 1543.03 1370.56 1567.09C1374.34 1569.84 1375.03 1575.34 1372.28 1579.13 1369.53 1582.91 1364.03 1583.59 1360.25 1580.84 1356.47 1578.09 1355.78 1572.59 1358.53 1568.81 1358.88 1568.13 1359.56 1567.44 1360.25 1567.09L1360.25 1553.34 1343.06 1553.34 1343.06 1590.81 1367.12 1614.88C1367.47 1614.88 1367.81 1614.88 1368.16 1614.88 1372.97 1614.88 1376.75 1618.66 1376.75 1623.47 1376.75 1628.28 1372.97 1632.06 1368.16 1632.06L1368.16 1632.06ZM1410.09 1562.63C1405.28 1562.63 1401.5 1558.84 1401.5 1554.03 1401.5 1553.69 1401.5 1553.69 1401.5 1553.34L1387.75 1540.97 1387.75 1515.88C1391.19 1516.91 1394.62 1518.28 1398.06 1519.66L1398.06 1536.5 1408.38 1545.78C1409.06 1545.78 1409.41 1545.78 1410.09 1545.78 1414.91 1545.78 1418.69 1549.56 1418.69 1554.38 1418.69 1559.19 1414.91 1562.63 1410.09 1562.63L1410.09 1562.63Z"/></g></g></g><g><g><g><path d="M1931.75 1528.48 1948.94 1528.48 1948.94 1535.35 1931.75 1535.35Z"/><path d="M1955.25 1515.91 1943.31 1503.69 1948.17 1498.72 1960.11 1510.93 1955.25 1515.91Z"/><path d="M1997.06 1532.31C1997.06 1543.7 1987.83 1552.94 1976.44 1552.94 1965.05 1552.94 1955.81 1543.7 1955.81 1532.31 1955.81 1520.92 1965.05 1511.69 1976.44 1511.69 1987.83 1511.69 1997.06 1520.92 1997.06 1532.31Z"/><path d="M1973 1487.23 1979.88 1487.23 1979.88 1504.42 1973 1504.42Z"/><path d="M2003.94 1528.48 2021.13 1528.48 2021.13 1535.35 2003.94 1535.35Z"/><path d="M1997.63 1515.91 2009.56 1503.69 2004.7 1498.72 1992.77 1510.93 1997.63 1515.91Z"/><path d="M1955.25 1548.32 1943.31 1560.54 1948.17 1565.51 1960.11 1553.3 1955.25 1548.32Z"/><path d="M1973 1559.81 1979.88 1559.81 1979.88 1577 1973 1577Z"/><path d="M1997.63 1548.32 2009.56 1560.54 2004.7 1565.51 1992.77 1553.3 1997.63 1548.32Z"/><path d="M2075.27 1636.8 2134.04 1636.8 2129.81 1603.75 2079.51 1603.75 2075.27 1636.8Z"/><path d="M2141.9 1590 2190.66 1590 2177.55 1560.87 2138.17 1560.87 2141.9 1590Z"/><path d="M2147.9 1636.8 2211.72 1636.8 2196.85 1603.75 2143.67 1603.75 2147.9 1636.8Z"/><path d="M2149.67 1650.55 2154.36 1687.19 2234.25 1687.19 2234.25 1686.87 2234.25 1686.87 2217.9 1650.55 2149.67 1650.55Z"/><path d="M2081.27 1590 2128.04 1590 2124.31 1560.87 2085 1560.87 2081.27 1590Z"/><path d="M2234.25 1722.87 2234.25 1700.94 1975.06 1700.94 1975.06 1722.87 2094.34 1722.87 2094.34 1755.75 2057.86 1755.75 2057.86 1776.38 2151.45 1776.38 2151.45 1755.75 2114.97 1755.75 2114.97 1722.87 2234.25 1722.87Z"/><path d="M2061.41 1636.8 2065.65 1603.75 2012.47 1603.75 1997.6 1636.8 2061.41 1636.8Z"/><path d="M2140.5 1687.19 2135.81 1650.55 2073.51 1650.55 2068.81 1687.19 2140.5 1687.19Z"/><path d="M2054.95 1687.19 2059.65 1650.55 1991.41 1650.55 1975.06 1686.87 1975.06 1687.19 2054.95 1687.19Z"/><path d="M2067.41 1590 2071.14 1560.87 2031.76 1560.87 2018.66 1590 2067.41 1590Z"/></g></g></g><text font-family="ADLaM Display,ADLaM Display_MSFontService,sans-serif" font-weight="400" font-size="55" transform="matrix(1 0 0 1 1005.28 1206)">Robotics &amp; Mechatronics</text><text font-family="ADLaM Display,ADLaM Display_MSFontService,sans-serif" font-weight="400" font-size="55" transform="matrix(1 0 0 1 1782.29 1214)">Bio</text><text font-family="ADLaM Display,ADLaM Display_MSFontService,sans-serif" font-weight="400" font-size="55" transform="matrix(1 0 0 1 1867.66 1214)">-</text><text font-family="ADLaM Display,ADLaM Display_MSFontService,sans-serif" font-weight="400" font-size="55" transform="matrix(1 0 0 1 1890 1214)">inspiration design</text><text font-family="ADLaM Display,ADLaM Display_MSFontService,sans-serif" font-weight="400" font-size="55" transform="matrix(1 0 0 1 1116.39 1433)">Machine Learning</text><text font-family="ADLaM Display,ADLaM Display_MSFontService,sans-serif" font-weight="400" font-size="55" transform="matrix(1 0 0 1 1917.76 1442)">Smart Energy</text></g></svg>